<?xml version="1.0" encoding="utf-8"?>

<!DOCTYPE svg PUBLIC "-//W3C//DTD SVG 1.1//EN" "http://www.w3.org/Graphics/SVG/1.1/DTD/svg11.dtd">
<svg version="1.1" id="Layer_1" xmlns="http://www.w3.org/2000/svg" xmlns:xlink="http://www.w3.org/1999/xlink" x="0px" y="0px"
	 viewBox="-34.541 65.61 1989.082 795.768" enable-background="new -34.541 65.61 1989.082 795.768" xml:space="preserve">
<g>
	<path stroke="#000000" stroke-width="0.5" d="M538.353,132.543c3.69-4.8,6.03-10.54,9.97-15.14c2.49,1.22,4.8,2.86,7.54,3.52
		c6.82,1.73,13.6,3.64,20.45,5.27c-0.45,2.42-1,4.83-1.52,7.23c12.81,0.43,25.63,0.41,38.44,0.79c0.02-3.16,0.04-6.33,0.09-9.49
		c9.94-0.05,19.89-0.03,29.84-0.03c-0.03,3.36-0.03,6.73-0.01,10.09c32.58,0.63,65.16,1.17,97.74,1.94c-0.01-1.92,0-3.83,0-5.75
		c9.96,0,19.93-0.1,29.9,0.05c-0.05,2.06-0.07,4.12-0.09,6.19c35.61,0.7,71.23,1.52,106.84,2.01c-0.01-1.94,0-3.87,0.01-5.8
		c9.92-0.07,19.84-0.07,29.77,0c0.07,2.11,0.08,4.22,0.27,6.32c33.76,1.03,67.57,1.33,101.34,2.13c0.01-3.62,0.01-7.25,0.05-10.87
		c9.96,0.04,19.93,0.01,29.9,0.02c0.01,3.76,0.01,7.51-0.04,11.27c19.85,0.88,39.74,0.63,59.6,1.36
		c16.18,0.19,32.35,0.69,48.54,0.73c-0.08-4.39-0.06-8.78-0.05-13.17c9.97-0.02,19.94-0.01,29.92-0.01
		c0.02,4.64,0.03,9.28-0.01,13.91c38.62,0.73,77.23,1.55,115.85,2.23c0.09-6.17,0.03-12.34,0.03-18.51
		c9.95-0.01,19.91,0.04,29.87-0.04c0.18,6.4,0.03,12.8,0.1,19.19c37.4,0.63,74.79,1.49,112.19,2.11c0.24-6.57-0.51-13.25,0.35-19.74
		c6.72-0.27,13.46,0.02,20.2-0.11c3.62-0.16,7.14,0.86,10.59,1.87c0.28,27.57-0.53,55.14-1.25,82.71
		c-0.24,89.51-0.17,179.02-0.43,268.53c1.48-0.13,3-0.25,4.51-0.38c1.35-52.17,2.91-104.33,4.27-156.51
		c0.66-15.35,1.17-30.71,2.63-46.01c0.92-8.72,1.66-17.61,4.62-25.93c1.08-2.99,3.32-6.64,7.01-6.2c5.61,1.27,7,7.71,10.97,11.02
		c4.82,1.27,9.96,0.53,14.93,0.71c16.2-0.11,32.51-0.55,48.57,1.94c1.28-6.25,3.08-12.64,7.28-17.61c3.8-4.82,9.89-8.23,16.17-7.4
		c6.69,0.79,12.11,5.77,15.24,11.5c3.93,7.04,5.11,15.34,4.25,23.3c10.09,5.85,20.31,11.61,29.43,18.95
		c4.68,3.67,8.26,8.5,11.8,13.23c1.7,2.18,1.49,5.73-0.99,7.26c-4.43,3.03-10.45,3.61-13.98,7.95c-2.7,3.57-1.15,8.39,0.2,12.21
		c4.32,10.99,10.83,20.93,17.11,30.88c1.37-0.33,2.73-0.66,4.15-0.98c0.52-11.51,1.47-23.21,5.36-34.14
		c1.46-3.63,3.33-8.03,7.51-9.09c3.16-0.6,5.8,1.96,7.24,4.5c2.99,5.18,4.22,11.13,5.33,16.95c2.34,13.54,2.54,27.37,1.65,41.06
		c-0.98,10.51-2.2,21.34-7.05,30.87c4.61-0.16,9.17-1.1,13.79-1.22c22.63,2,45.21,4.83,67.56,9.01c11.65,2.33,23.38,4.86,34.38,9.49
		c7.23,3.09,14.3,7.94,17.59,15.36c2.7,5.75,2.42,12.26,2.47,18.46c-1.27-0.71-3.54-0.36-4-2.02c-0.18-3.1-0.03-6.23-0.81-9.27
		l-0.25-1.37c-0.33-1.63-0.94-3.2-1.53-4.74c-1.68-3.17-4.11-5.88-7-7.99c-4.42-3.2-9.5-5.29-14.66-6.95
		c-18.52-6.09-37.92-8.91-57.17-11.56c-8.97-1.12-17.91-2.53-26.93-3.13c-9.18-1.55-18.38,0.14-27.58,0.28
		c-3.41,0.28-6.59-1.04-9.54-2.57c-1.57,1.53-3.11,3.08-4.45,4.81c-0.84,1.85-1.54,3.76-2,5.74c-0.78,4.76-0.74,9.61-0.23,14.4
		c43.55,5.75,87.17,11.29,130.34,19.55c5.98,1.24,12,2.36,17.89,4.05l0.31,0.09c1.45,0.45,2.98,0.82,4.48,1.26
		c7.51,1.31,14.73,4.01,21.77,6.9c8.04,3.51,16.04,8.55,20.25,16.53c4.31,8.25,4.53,17.86,4.49,26.96
		c-0.55,17.24-3.34,34.3-6.06,51.3c12.93,11.05,22.71,25.4,29.33,41.01c1.79,4.96,5.9,8.63,7.66,13.62
		c2.66,7.01,2.99,14.88,0.97,22.1c-1.27,3.86-0.56,7.94-0.44,11.91c0.7,15.05,1.02,30.19-0.61,45.2
		c-1.06,7.64-2.42,15.64-6.99,22.06c-3.68,5.16-10.03,7.67-16.18,8.05c-6.56,0.4-13.11-0.54-19.54-1.64
		c-0.22-2.29-0.44-4.58-0.66-6.84c-2.47,6.55-4.25,13.36-7.43,19.63c-12.79,27.52-37.87,49.28-67.42,56.77
		c1.5,0.79,3.2,0.96,4.9,1.15c-1.44,0.31-2.9,0.64-4.27,1.02c-0.23-0.51-0.67-1.53-0.89-2.04c-20.78,5.1-43.18,3.48-62.82-5.08
		c-28.42-12.09-50.18-37.74-58.91-67.22c-2.06,0.3-4.12,0.58-6.15,0.87c-1.93,4.62-4.57,9.33-9.22,11.67
		c-7.39,3.76-16.27,2.09-23.38-1.53c-0.29,2.45,0.2,5.46-1.87,7.27c-1.37,1.5-3.5,1.48-5.34,1.51
		c-45.02-0.09-90.04-0.13-135.06-0.18c-2.92,0.39-6.19-1.51-6.49-4.58c-0.21-3.15-0.43-6.37,0.21-9.47
		c2.63-5.74,8.2-9.08,12.53-13.39c7.6-7.09,14.88-15.5,16.85-26.04c2.05-11.34-0.99-22.85-4.81-33.49
		c-42.43-0.44-84.85,1.1-127.27,1.68c-1.1,0.19-3.66-0.46-3.14,1.58c-0.08,19.74-0.02,39.49-0.09,59.23
		c0.42,3.18-2.51,6.04-5.66,5.6c-65.05-0.06-130.1-0.18-195.15-0.24c-3.07,0.39-6.12-2.21-5.76-5.38
		c-0.13-18.93,0.18-37.87-0.09-56.8c-77.34,1.57-154.69,2.97-232.03,4.46c-3.3,0.24-6.57,0.83-9.88,0.77
		c8.52,26.73,5.75,56.63-7.08,81.53c-11.92,23.64-33.09,42.46-58.07,51.28c-27.19,9.81-58.45,7.39-83.78-6.54
		c-26.82-14.41-46.53-41.08-52.65-70.88c-1.53-7.05-2.14-14.26-2.33-21.46c-0.129-3.601-0.267-6.729,0.4-9.69
		c0.82-6.55,1.98-13.06,3.41-19.51c1.36-4.08,2.88-8.1,4.35-12.14c4.58-11.01,10.85-21.36,18.8-30.27
		c8.38-10.28,19.76-17.32,30.71-24.5c-7.55,0.12-14.81-2.21-22.29-2.74c-1.94-0.17-3.85-0.56-5.73-1.01
		c-8.98,0.99-17.89-2.16-26.82-0.65c-4.23,0.62-8.47-0.83-12.68,0.01c-5.75,1.49-11.79-0.6-17.43,1.69
		c-0.69-0.29-1.37-0.58-2.03-0.85c-6.43,1.02-12.88,1.93-19.34,2.78c-2.82,0.6-6.44,0.61-8.35,3.02c3.49,3.01,7.71,5.01,11.29,7.91
		c5.27,4.19,10.3,8.7,14.95,13.58c7.83,9.03,14.07,19.39,18.74,30.39c2.38,5.4,4,11.09,5.54,16.77c1.58,7.98,2.35,16.09,2.44,24.22
		c0.16,30.31-13.71,60.2-36.71,79.91c-15.71,13.84-35.57,23.04-56.43,25.39c-22.17,2.7-45.17-2.15-64.36-13.57
		c-27.01-15.81-46.03-44.34-50.3-75.33c-1.25-8.12-1.32-16.38-0.74-24.56c-2.33,0.64-6.09-0.67-7.3,2.06
		c-3.55,8.42-9.6,16-17.71,20.39c-9.05,5.33-22.63,3.07-28.13-6.31c-5.69-9.03-5.99-20.41-3.33-30.5
		c-0.2-44.59,6.1-88.88,11.39-133.08c-14.58,31.78-28.72,64.09-48.87,92.84c-10.58,14.87-23.16,28.82-39.2,37.9
		c-19.78,11.48-42.99,15.21-65.57,15.65c-2.89,4.27-5.66,8.63-8.36,13.03c-5.99-3.4-11.64-7.36-17.49-10.99
		c0.19-0.62,0.58-1.86,0.77-2.48c-14.14-0.3-28.27-0.92-42.39-1.61c-1.47,2.18-3.45,4.23-4.03,6.86
		c-0.27,5.02,0.02,10.07-0.12,15.11c-59.54,0.06-119.07-0.34-178.6-0.31c-0.1-11.14,0.09-22.27-0.06-33.41
		c41.47,0.6,82.95,0.13,124.42,0.41l0.07-0.83c0.19-30,0.14-60,0.16-90c-24.25,0.33-48.48,1.19-72.73,1.59
		c0.02-0.82,0.06-2.46,0.08-3.28c-0.51-0.28-1.55-0.84-2.07-1.12c0.06-11.22,0.19-22.45-0.02-33.68c-8.73,0.76-17.47,1.59-26.23,2
		c6.05-56.21,12.31-112.39,19.35-168.48c7.32-58.38,14.73-116.75,21.89-175.16c0.47-4.28,0.89-8.63,2.48-12.67
		c18.4,1.41,36.85,0.87,55.28,0.94c-0.07-4.77-0.29-9.58,0.53-14.3c0.49-2.98,1.83-5.78,1.94-8.82c0.25-6.36-0.29-12.74,0.21-19.08
		c0.2-2.93,2.99-5.21,5.87-5.13c4.04-0.18,8.09,0,12.14-0.07c2.3,0.09,4.92-0.23,6.88,1.24c1.74,1.23,2.07,3.48,2.82,5.32
		c16-4.34,32.68-5.28,49.17-5.93c53.04-1.64,106.07,1.61,159.1,2.42c20.29,0.52,40.66,0.68,60.86-1.53
		c7.91-1.11,16.17-2.18,23.15-6.34c3.43-2.87,5.99-6.97,6.55-11.47c4.64-2.72,7.24-7.42,10.21-11.7c1.4-2.31,4.43-4.27,7.07-2.71
		c3.72,2.18,7.27,4.68,10.64,7.36c1.7,1.24,1.64,3.48,2,5.35C524.043,132.143,531.213,133.083,538.353,132.543 M549.313,122.603
		c-54.74,87.86-109.52,175.69-164.25,263.55c-7.65,9.92-13.68,20.96-20.53,31.43c-60.7-0.23-121.39-0.1-182.09-0.3
		c-0.02-33.19,0.07-66.38,0.09-99.57c53.27-0.01,106.54,0.13,159.82,0.21c0.97-4.21,2.7-8.2,5.27-11.68
		c-55.02,0.03-110.03-0.19-165.05-0.19c-0.01-50.25,0.14-100.49,0.16-150.74c-5.82-0.04-11.64-0.05-17.46-0.02
		c-0.23,174.3-0.57,348.59-0.78,522.89c5.88-0.05,11.75-0.05,17.62,0.03c0.09-43.72-0.12-87.45,0.32-131.16
		c3.62-0.46,7.24-1.07,10.91-0.99c30.53,0.1,61.06,0.09,91.59,0.17c-26.87,44.12-54.48,87.78-81.76,131.64
		c-1.48-0.04-2.95-0.08-4.41-0.12c26.34-42.64,53-85.09,79.47-127.66c-30.37-0.01-60.73-0.07-91.1-0.13
		c-0.1,42.67,0.08,85.35-0.31,128.02c8.99,0.26,18,0.12,26.99,0.2c-0.03,3.44-0.08,6.88-0.1,10.33
		c106.57-170.66,212.83-341.52,319.4-512.19c1.05,0.57,2.11,1.15,3.18,1.71c-13.62,51.54-27.06,103.12-40.63,154.67
		c-1.16,4.32-5,7.14-7.13,10.95c-74.56,116.32-149.23,232.56-223.81,348.86c3.66,2.34,7.3,4.72,11.01,7.01
		c47.48-74.35,95.27-148.52,142.87-222.8c21.33-33.04,42.3-66.33,63.85-99.22c-0.28,8.6-3.12,16.78-5.24,25.05
		c-10.52,40.21-21.06,80.42-31.64,120.62c6.95,1.77,13.89,3.58,20.82,5.45c35.01-133.02,69.9-266.08,104.95-399.1
		C564.363,126.063,556.263,126.043,549.313,122.603 M492.623,135.663c-37.42,54.03-74.84,108.07-112.25,162.11
		c4.43,1.79,8.27,4.7,11.55,8.15c40.31-58.58,81.07-116.84,121.32-175.46c-3.63-2.79-7.45-5.28-11.19-7.91
		C498.523,126.633,495.773,131.293,492.623,135.663 M617.453,128.563c-0.02,130.14,0.09,260.27-0.03,390.41
		c7.17,0.14,14.35-0.09,21.52,0.13c0.27-21.88,0.12-43.76,0.15-65.63c-0.21-108.3,0.06-216.59-0.08-324.89
		C631.833,128.543,624.643,128.553,617.453,128.563 M1296.963,132.573c-0.13,18.32-0.08,36.63-0.07,54.94
		c0.21,108.36-0.08,216.71,0.12,325.06c7.16-0.02,14.32-0.03,21.48-0.01c-0.1-12.64,0.17-25.27-0.08-37.9
		c0.15-23.76,0.06-47.53,0.01-71.29c0.06-48.92,0.07-97.85-0.03-146.76c0.16-17.08,0.09-34.16,0.01-51.24
		c0.17-24.24,0-48.49,0.03-72.74C1311.273,132.633,1304.113,132.713,1296.963,132.573 M745.143,134.763
		c-0.17,76.23,0.05,152.46-0.06,228.69c-0.11,51.51,0.29,103.03-0.13,154.53c7.1,1.11,14.36,0.06,21.53,0.5l0.07-0.84
		c-0.02-12.65,0.01-25.3,0.04-37.95c0.12-32.09,0.05-64.19-0.05-96.29c-0.07-41.27-0.06-82.54,0.03-123.82
		c0.14-21.7,0.06-43.41-0.03-65.11c-0.06-19.89,0.03-39.77-0.1-59.66C759.343,134.853,752.243,134.923,745.143,134.763
		 M1013.273,134.823c-0.19,10.53-0.06,21.06-0.12,31.58c-0.14,30.38-0.05,60.76,0.05,91.14c0.06,42.63,0.07,85.26-0.03,127.89
		c-0.13,22.39-0.09,44.79,0.04,67.18c0.02,20.71,0.04,41.42,0.03,62.13c7.16-0.03,14.31-0.04,21.47-0.01
		c0.08-65.1-0.06-130.2-0.08-195.3c0.12-61.53,0.12-123.07-0.06-184.6C1027.473,134.943,1020.373,134.933,1013.273,134.823
		 M1439.143,134.143c-0.17,126.61-0.33,253.23-0.66,379.84c7.24,0.03,14.48,0.14,21.73-0.02c-0.23-14.49,0.01-28.99-0.03-43.49
		c0.2-112.1,0.15-224.2,0.39-336.3C1453.423,134.203,1446.283,134.173,1439.143,134.143 M1151.163,135.093
		c0.02,10.43-0.02,20.87-0.03,31.3c-0.14,22.06-0.07,44.13,0.04,66.19c0.05,50.95,0.11,101.89-0.02,152.84
		c-0.14,21.73-0.08,43.48,0.04,65.22c0.02,21.43,0.06,42.87,0.04,64.3c7.15-0.03,14.3-0.05,21.46-0.01
		c-0.06-126.61,0-253.23-0.07-379.84C1165.463,135.133,1158.313,135.113,1151.163,135.093 M512.493,138.443
		c-39.36,57.03-78.95,113.9-118.29,170.93c4.97,8.65,4.29,20.17-2.06,27.94c-8.3,10.86-24.77,13.73-36.49,6.92
		c-8.11-4.4-13.48-13.21-13.58-22.45c-51.54,0.01-103.09-0.17-154.63-0.18c0,30.6-0.1,61.2-0.11,91.8
		c58.68,0.11,117.36,0.08,176.03,0.17c47.96-77.07,96.04-154.08,144.05-231.13c9.34-15.27,19.16-30.26,28.24-45.69
		c-6.78-0.18-13.57,0-20.36-0.28C513.853,136.113,513.183,137.513,512.493,138.443 M573.533,137.703
		c-11.51,43.58-22.83,87.21-34.34,130.79c-22.56,85.16-44.73,170.43-67.21,255.62c6.44-0.63,12.91-0.48,19.37-0.46
		c40.66-0.31,81.29-1.14,121.95-1.33c0.07-53.59,0.26-107.18-0.05-160.76c0.02-74.34,0.35-148.69,0-223.03
		C600.013,138.103,586.783,137.763,573.533,137.703 M881.583,137.393c0.18,126.62-0.01,253.24,0.13,379.86
		c7.19-0.06,14.39-0.06,21.58-0.02c0.08-29.22,0.07-58.44,0.02-87.65c-0.12-97.42,0.05-194.83-0.04-292.24
		C896.043,137.363,888.803,137.263,881.583,137.393 M643.163,139.133c-0.02,22.81-0.04,45.61-0.1,68.42
		c0.63,20.64,0.14,41.31,0.25,61.96c-0.07,53.67-0.13,107.35-0.22,161.02c0.59,30.49,0.12,61,0.19,91.5
		c18.05-0.71,36.12-0.41,54.18-0.69c9.29-0.65,18.61,0.19,27.9-0.51c5.2-0.25,10.42,0.06,15.62-0.21
		c-0.16-44.37,0.1-88.75,0.11-133.13c-0.73-16.99-0.16-34.02-0.3-51.03c0.08-57.33,0.22-114.67,0.26-172.01
		c-0.51-7.85-0.34-15.71-0.28-23.57C708.233,140.293,675.713,139.453,643.163,139.133 M770.623,141.603
		c0.05,23.64-0.05,47.28-0.09,70.92c0.73,18.65,0.17,37.34,0.3,56c-0.07,55.67-0.18,111.33-0.26,166.99
		c0.56,9.33,0.28,18.67,0.32,28.01c-0.05,18.98,0.01,37.96-0.13,56.95c9.5-0.61,19.04,0.17,28.55-0.48
		c26.03-0.37,52.08-0.35,78.11-0.94c0.48-49.85-0.2-99.7-0.01-149.55c0.03-32,0.07-64,0.12-96c0.21-43.37-0.36-86.73-0.12-130.1
		c-21.34,0.01-42.67-0.99-64.01-1.05C799.143,142.063,784.883,141.463,770.623,141.603 M907.363,144.043
		c-0.08,33.48,0.04,66.96,0.14,100.44c-0.05,52.7-0.12,105.39-0.14,158.08c0.07,38.72,0.3,77.43,0.05,116.14
		c11.64,0.11,23.28-0.37,34.94-0.2c10.99-0.65,22.01,0.09,33-0.65c11.26,0.16,22.5-0.26,33.76-0.36
		c-0.1-22.99,0.06-45.98,0.06-68.97c0.29-11.69-0.55-23.36-0.32-35.04c0.07-53.66,0.16-107.31,0.25-160.96
		c-0.12-15.68,0.41-31.36-0.31-47.02c0.04-19.76,0.08-39.53,0.08-59.29c-21.14-0.93-42.31-0.57-63.45-1.5
		C932.733,144.633,920.043,144.513,907.363,144.043 M1038.803,146.643c0.04,16.62-0.05,33.24-0.06,49.87
		c-0.21,13.02,0.65,26.02,0.32,39.05c-0.06,38.63-0.11,77.27-0.18,115.9c0.11,30.02-0.49,60.05,0.23,90.06
		c-0.01,25.32-0.13,50.64-0.07,75.95c8.42-0.52,16.86-0.54,25.3-0.44c20.69-0.68,41.41-0.25,62.1-0.89
		c6.88-0.17,13.82,0.52,20.68-0.47c-0.25-33.05,0.38-66.12-0.3-99.16c0.08-63.67,0.19-127.33,0.3-191c0.3-9-0.57-17.99-0.33-26.99
		c0.06-16.63-0.03-33.27,0.13-49.9C1110.873,148.223,1074.843,147.283,1038.803,146.643 M1176.733,149.433
		c0.31,23.69-0.48,47.39,0.35,71.07c-0.14,68.99-0.22,137.98-0.36,206.97c0.67,12.69,0.24,25.4,0.33,38.11
		c-0.03,16.64-0.04,33.29-0.09,49.94c38.6-0.05,77.16-1.24,115.76-1.05c0.19-25.99,0.09-51.98,0.2-77.97
		c-0.69-26.98-0.16-53.98-0.26-80.98c-0.09-53.99,0.56-107.99-0.11-161.97c0.03-14.04,0.02-28.08,0.07-42.12
		c-14.09,0.08-28.16-0.39-42.24-0.78C1225.823,150.583,1201.293,149.493,1176.733,149.433 M464.503,155.043
		c-14.88,2.44-30.01,2.79-45.07,2.62c-38.72,0.29-77.39-1.93-116.1-2.48c-18.31-0.47-36.64-0.96-54.96-0.36
		c-20.35,0.63-41.04,0.99-60.77,6.54c0.04,46.94-0.15,93.87-0.11,140.81c54.63,0.01,109.26,0.14,163.89,0.21
		c6.97-5.59,16.35-7.82,25.08-5.83c33.44-48.16,66.83-96.36,100.13-144.61C472.653,153.313,468.623,154.383,464.503,155.043
		 M1322.483,152.123c0.31,21.78-0.43,43.57,0.34,65.34c-0.12,69.33-0.2,138.67-0.32,208.01c0.64,12.68,0.19,25.39,0.29,38.08
		c-0.06,16.72,0.05,33.43-0.14,50.14c37.25,0.1,74.49-0.87,111.74-1.08c0.02-119.46,0.28-238.92,0.46-358.38
		C1397.393,153.723,1359.943,152.883,1322.483,152.123 M528.193,191.493c-102.63,164.71-205.28,329.41-307.99,494.08
		c14.35,0.99,28.74,0.93,43.08,1.91c69.59-108.47,139.2-216.92,208.78-325.39c4.57-7.37,9.69-14.41,13.63-22.15
		c2.92-4.59,6.27-9.06,7.42-14.5C504.973,280.843,516.733,236.193,528.193,191.493 M105.273,201.123
		c-6.62,54.11-13.39,108.2-20.26,162.27c-7.89,61.63-14.83,123.38-21.55,185.14c8.61-0.21,17.3-2.45,25.84-0.58
		c0.12,12.35,0.02,24.7,0,37.04c23.33-0.73,46.67-1.12,70-1.75c0.1-0.41,0.3-1.24,0.4-1.66c0.22-47.06,0.06-94.13,0.33-141.2
		c-5.11,3.98-11.17,7-17.74,7.29c-10.96,1-22.5-4.56-27.74-14.4c-4.35-7.79-3.78-17.9,1.31-25.21c6.38-9.53,18.83-14.1,29.95-11.79
		c5.32,0.95,10.13,3.64,14.29,7.03c-0.16-67.15,0.22-134.31,0.16-201.46C141.933,201.693,123.573,202.373,105.273,201.123
		 M1574.193,244.243c-5.25,4.62-7.54,11.55-8.7,18.24c11.9,3.42,23.83,6.75,35.75,10.11c0.43-5.75,0.37-11.67-1.55-17.17
		c-1.99-5.99-5.9-11.92-12.02-14.23C1583.043,239.393,1577.723,240.953,1574.193,244.243 M1486.623,252.123
		c-3.03,3.81-3.82,8.73-4.72,13.37c-2.48,15.21-3.11,30.64-3.92,46.01c-4.2,102.28-1.5,204.73-6.23,307
		c37.87-0.08,75.74,0.07,113.61,0.02c2.08-0.06,4.21,0.05,6.24,0.7c6.98-20.62,14.43-41.5,26.99-59.48
		c9.04-13.17,21.6-24.05,36.41-30.21c-2.36-27.28-4.18-54.61-6.3-81.91c-0.48-9.31-2.54-18.93,0.5-28.02
		c1.26-4.15,4.41-7.29,7.56-10.1c-1.21-5.24-1.22-10.66-2.35-15.91c-0.95-6.18-2.97-12.11-4.72-18.1
		c-4.19,0.79-8.52,0.76-12.63-0.38c-3-2.8-6.78-4.54-10.02-7c1.68-2.32,3.55-4.78,6.38-5.74c3.36-1.05,6.86,0.11,10.19,0.79
		c-6.61-9.82-12.64-20.15-16.76-31.27c-1.63-5.21-3.32-11.24-0.62-16.37c3.32-5.42,9.88-7.21,15.58-8.99
		c-10.25-11.94-22.81-22.17-37.56-27.94c-22.88-8.73-47.23-15.35-71.92-13.83c-11.92,0.63-23.85,0.72-35.76,1.39
		C1493.563,261.283,1491.323,255.663,1486.623,252.123 M362.783,300.073c-7.89,2.18-14.7,8.51-16.68,16.56
		c-2.06,7.46,0.6,15.77,6.16,21.04c7.77,7.69,20.65,9.13,30.1,3.78c6.53-3.58,11.29-10.41,11.84-17.9
		c0.72-8.06-3.67-16.09-10.44-20.36C377.653,299.163,369.803,298.153,362.783,300.073 M1660.503,333.043
		c-0.85,3.21-2.02,6.45-1.91,9.82c-2.32,13.21-2.65,26.88-0.99,40.2c-0.35,2.69,0.35,5.36,0.9,7.99c-0.02,2.02,0.56,3.99,1.04,5.95
		c0.32,4.36,1.93,8.63,4.06,12.43c0.64,1.48,2.24,1.91,3.62,2.5c2.08-3.36,4.35-6.88,4.8-10.9c1.14-3.92,1.95-7.92,2.48-11.97
		c0.33-3.3,1.1-6.61,0.74-9.94c0.86-8.05,0.89-16.22,0.06-24.27c0.32-3.38-0.42-6.76-0.98-10.08c0.03-4.02-1.24-7.91-2.18-11.78
		c-0.86-3.95-2.14-8.73-5.74-11.02C1662.663,324.073,1661.323,329.063,1660.503,333.043 M118.573,409.893
		c-4.69,6.69-4.88,16.14-0.46,23.01c4.99,8.14,14.98,12.45,24.36,11.51c6.45-0.5,12.5-3.59,16.99-8.19
		c0.57-5.87,0.17-11.77,0.29-17.66c-0.1-3.84,0.42-7.76-0.53-11.53v-0.16c-4.69-4.23-10.52-7.39-16.92-7.79
		C133.253,398.233,123.673,402.233,118.573,409.893 M466.013,410.093c-59.28,92.49-118.75,184.87-177.92,277.43
		c12.49-0.52,25.02-1.87,37.08-5.26c15.96-4.33,30.95-12.58,42.67-24.3c14.4-13.78,25.17-30.79,34.97-48
		c14.17-25.32,25.83-51.93,37.52-78.45c1.59-2.82-0.07-6.09,1.04-9.03c11-41.44,21.67-82.96,32.67-124.41
		C470.933,401.773,468.723,406.113,466.013,410.093 M1652.413,442.333c2.35,28.53,4.46,57.09,6.51,85.65
		c18.37-6.58,38.16-7.03,57.45-6.28c25.88,1.63,51.51,6.78,76.1,15.01c17.55,6.01,34.82,13.68,49.52,25.18
		c2-14.43,4.49-28.82,5.33-43.38c0.2-9.31,0.74-19.06-2.82-27.87c-3.05-7.57-10.09-12.51-17.21-15.88
		c-12.36-5.61-25.67-8.64-38.87-11.52C1743.453,454.063,1697.833,448.643,1652.413,442.333 M1464.403,487.563
		c-0.14,10.04-0.01,20.08-0.11,30.12c-1.78,0.12-3.53,0.24-5.27,0.36c-4.72,44.91-8.91,89.88-13.78,134.78
		c2.5-0.01,5.02-0.02,7.55-0.04c2.08-0.16,4.19-0.28,6.31-0.37c4.06,0.17,8.16,0,12.15-0.9c-0.34-0.35-1.03-1.04-1.37-1.39
		c0.37-3.05,1.23-6.11,0.91-9.19c-1-2.78-2.96-5.05-4.24-7.67c-1.48-2.68-1.26-5.84-1.34-8.78c0-12.65,0.91-25.27,0.95-37.91
		c-0.08-5.89,0.97-11.83-0.01-17.68c0.17-1.48,0.33-2.96,0.45-4.43c0.52-25.71,1.39-51.4,2-77.11
		C1467.183,487.423,1465.783,487.493,1464.403,487.563 M1374.353,517.463c-295.65,3.56-591.29,6.96-886.94,10.46
		c-5.58,0.04-11.2-0.38-16.72,0.56c-0.41,1.73-0.81,3.47-1.22,5.22c-7.54-1.55-14.84-4.05-22.36-5.65c-1.76,0.7-1.69,3.26-2.22,4.88
		c-2.96,22.81-5.84,45.64-8.29,68.52c-2.34,22.71-4.65,45.49-4.67,68.35c2.95-2.73,6.16-5.68,10.34-6.17
		c4.8-0.79,9.45,1.89,12.51,5.43c9.92,12.37,9.14,31.54-0.63,43.81c10.06-4.31,18.66-13.98,19.22-25.25
		c2.5-15.78,4.65-32.28,13.18-46.14c4.44-7.26,10.59-13.22,16.36-19.4c14.02-14.18,31.4-24.57,49.45-32.79
		c35.58-15.87,74.36-23.56,113.09-26.21c47.72-2.74,96.27,1.37,141.9,16.2c25.82,8.55,51.1,20.48,71.52,38.77
		c13.09,11.85,23.87,27.29,26.67,45.05c53.27-0.9,106.54-1.98,159.81-3.01c25.73-0.66,51.47-0.68,77.19-1.59
		c0.06-24.69,0.07-49.38,0.12-74.06c-0.46-3.25,2.4-6.26,5.69-5.84c65.04,0.01,130.08,0.19,195.11,0.25
		c3.22-0.44,6.29,2.34,5.87,5.64c0.02,23.39-0.06,46.78-0.06,70.16c23.37-0.31,46.74-1.01,70.12-1.22
		c6.82-0.71,13.78,0.51,20.52-0.98c2.84-44.93,6.89-89.78,9.71-134.7c-6.11,0.27-12.23,0.25-18.26-0.83
		C1412.363,516.493,1393.363,517.663,1374.353,517.463 M1667.393,529.913c-16.18,4.21-31.22,13.56-41.26,27.04
		c-5.45,6.55-9.96,13.85-13.75,21.47c-2.59,5.83-5.92,11.45-7.6,17.62c-2.3,5.19-4.69,10.45-5.99,15.96
		c-3,7.25-6.2,14.78-5.12,22.81c-1.49,6.17-1.71,12.54-2.56,18.81c-0.25,2.7-0.95,5.44-0.42,8.16c-2.02,11.79-1.88,23.87-1.38,35.79
		l0.27,1.65c0.02,0.09,0.05,0.26,0.07,0.34c-0.1,5.6,1.34,11.06,2.89,16.39l0.19,0.01c1.65,4.04,3.61,8.26,7.23,10.92
		c2.51,1.87,4.43,4.56,7.45,5.73c5.69,2.63,12.85,3.57,18.46,0.25c5.19-3.54,6.87-10.12,8.06-15.92c1.13-10.41,1.26-20.9,2.05-31.33
		c0.29-4.13,0.88-8.26,0.81-12.4l0.22,0.64c0.49-7.6,2.1-15.1,2.72-22.67l0.21,0.53c1.39-7.66,3.62-15.12,5.59-22.62l0.07,0.49
		c3.43-9.51,8.11-18.54,14.22-26.6l0.37-0.11c4.69-5.86,10.7-10.4,16.69-14.85l0.43,0.03c19.01-11.04,41.39-14.86,63.14-14.39
		c4.12,0.03,8.24,1.05,12.36,0.48c5.44,1.4,11.08,1.87,16.52,3.33c10.23,2.33,20,6.37,29.18,11.41l0.38,0.05
		c5.94,3.97,11.54,8.39,16.54,13.5c5.19,5.77,9.12,12.45,12.98,19.14c1.1,3.66,2.98,7.04,4.19,10.67l0.12-0.02
		c3.33,9.89,5.44,20.13,7.17,30.41c0.24,3.64,0.88,7.26,1.33,10.89c0.01,2.09,0.28,4.17,0.56,6.26l0.19-0.59
		c0.44,10.47,0.93,20.96,1.85,31.41c0.11,4.36-1.54,9.12,0.61,13.23c6.93,0.38,14.16,1.9,20.9-0.54c4.84-1.68,8.25-6.06,9.83-10.81
		c2.62-7.69,3.75-15.88,3.78-23.99l0.28-0.38c-0.14-6.02,1.01-12.18-0.04-18.1c0.62-6.22-0.34-12.43-0.07-18.65
		c-3.64,4.59-8.24,9.81-14.71,9.29c-5.59,0.26-9.64-4.06-13.12-7.81c-2.35-5.13-4.42-10.38-5.29-15.98
		c0.42-6.32,0.01-12.76,2.16-18.85l0.18,0.08c2.02-5.3,5.09-10.57,10.26-13.33c3.27-1.97,7.25-1.32,10.89-1.14
		c-2.41-4.6-4.66-9.31-7.73-13.51l-0.07-0.43c-2.62-4.18-5.56-8.15-8.96-11.7c-5.35-7.06-12.76-12.35-19.9-17.5
		c-9.55-6.46-19.99-11.62-30.81-15.56l-0.1-0.34c-13.8-5.11-27.93-9.56-42.39-12.32c-10.36-2.78-21.06-4.09-31.71-5.24
		c-9.06-1.47-18.25-1.21-27.38-1.2C1689.283,525.493,1678.223,527.473,1667.393,529.913 M1146.093,582.053
		c-0.36,36.15-0.17,72.31-0.31,108.46c0.14,10.37-0.37,20.76,0.22,31.12c60.78,0.18,121.56,0.2,182.35,0.34
		c5.67-0.26,11.48,0.57,17.06-0.38c1.1-3.15,0.22-6.74,0.49-10.04c0.05-42.39,0.17-84.77,0.18-127.16c0.42-1.7-1.22-2.45-2.65-2.21
		c-40.01-0.11-80.03-0.14-120.04-0.22C1197.633,582.053,1171.853,581.603,1146.093,582.053 M765.843,606.953
		c-12.92,4.53-24.07,12.86-34.17,21.9c-10.35,10.92-18.86,23.74-23.85,38c-10.81,30.36-5.99,66.15,13.36,92.05
		c9.8,13.83,23.4,24.68,38.57,32.11c14.56,6.5,30.6,9.79,46.55,8.91c27.73-1.16,54.53-14.95,71.9-36.54
		c18.03-21.95,25.78-51.87,20.9-79.83c-1.98-10.97-5.23-21.95-11.28-31.4c-0.26-2.05-1.53-3.77-2.58-5.47
		c-2.81-4.16-5.64-8.34-9.12-11.99c-6.07-6.24-12.06-12.69-19.47-17.37C830.543,599.193,795.373,595.353,765.843,606.953
		 M1730.783,600.953c-9.37,1.16-18.61,3.69-27.13,7.78c-30.6,14.19-51.1,46.33-53.08,79.74c-3.3,36.89,18.98,73.84,52.1,89.76
		c16.8,8.44,36.25,10.47,54.69,7.63c18.31-3.29,35.46-12.49,48.4-25.85c12.68-12.72,20.25-29.8,23.41-47.32
		c3.72-21.14,0.47-43.49-9.41-62.57c-8.32-16.2-21.35-30.05-37.36-38.82C1766.833,602.563,1748.513,599.013,1730.783,600.953
		 M574.643,602.993c-23.45,2.94-45.61,14.86-60.99,32.8c-26.11,30.42-30.74,76.92-11.63,112.09c15.17,29.54,46.17,50.34,79.37,52.59
		c22.37,1.85,45.28-4.38,63.59-17.37c13.19-9.12,23.48-22.03,30.76-36.23c14.89-29.72,13.71-66.78-3.2-95.42
		c-10.01-17.2-25.25-31.27-43.17-39.92C612.433,603.573,593.213,600.443,574.643,602.993 M1855.753,611.493
		c-2.9,2.04-4.6,5.25-5.92,8.44c-3.4,8.71-3.07,18.85,1.12,27.23c2.48,4.86,6.77,9.3,12.35,10.25c3.32,0.68,6.76-0.25,9.58-2.07
		l0.42-0.02c7.08-5.64,10.25-14.96,9.98-23.8c-0.06-8.21-3.14-16.98-9.95-21.97C1868.133,605.603,1859.893,606.493,1855.753,611.493
		 M1469.683,622.713c-0.29,2.05-0.22,4.14-0.24,6.21c40.04,0.45,80.07,0.64,120.1,0.91c0.01-2.38,0.02-4.75-0.05-7.12
		c-18.03-0.22-36.06-0.07-54.08-0.14C1513.503,622.713,1491.573,622.203,1469.683,622.713 M1474.413,634.073
		c0.97,1.97,1.99,3.95,2.98,5.94c1.53,3.02,2.92,6.11,4.44,9.14c0.33,1.31,0.92,2.54,1.45,3.82c1.07,2.67,2.08,5.37,3.05,8.09
		c0.64,2.35,1.26,4.72,1.89,7.1c0.35,2.04,0.73,4.1,1.03,6.16c0.08,1.66,0.15,3.34,0.48,5c-0.12,2.58-0.57,5.21-0.07,7.79
		c-0.81,3.22-1.53,6.46-2.4,9.66c-1,2.28-2.03,4.54-3.06,6.8c-1.33,2.06-2.7,4.11-4.09,6.14c-2.3,2.66-4.66,5.25-7.01,7.86
		c-0.75,0.68-1.47,1.38-2.17,2.09l-0.08,0.18c-1.53,1.24-3.05,2.49-4.4,3.92c-1.16,0.83-2.27,1.76-3.32,2.72
		c43.48,0.07,86.96,0,130.45,0.06c-0.78-1.16-1.55-2.32-2.29-3.45c-1.69-3.25-3.05-6.64-4.07-10.14c-0.29-1.35-0.68-2.73-0.91-4.04
		c-0.38-2.37-0.74-4.74-1-7.11c-0.92-6.24-0.26-12.56-0.86-18.8c0.22-5.01,1.08-10.03,0.81-15.05c0.67-3.85,0.88-7.75,1.19-11.64
		c0.32-2.73,0.89-5.46,0.83-8.2c0.79-4.62,1.1-9.31,1.87-13.93C1550.903,634.213,1512.653,634.023,1474.413,634.073
		 M440.773,666.423l-1.34-0.14c-3.48,2.16-6.79,4.87-8.66,8.61c-3.9,6.83-3.49,14.99-2.89,22.56c1.26,6.66,4.92,13.36,11.13,16.54
		c4.17,2.22,9.49,1.05,12.8-2.19c10.32-9.9,11.19-27.46,3.35-39.1c-2.06-2.67-4.55-6-8.17-6.2
		C446.383,664.603,441.473,664.633,440.773,666.423 M38.193,681.003c0,9.1-0.23,18.19,0.09,27.29
		c57.44,0.14,114.89,0.37,172.34,0.26c0.19-4.32,0.37-8.67-0.39-12.94c0.24-4.59,0.46-9.19,0.42-13.78
		c-10.72-1.04-21.5-0.26-32.25-0.56c-8.33,0.1-16.68-0.28-25,0.43c-16.69,0.14-33.37-0.07-50.06,0.06
		c-20.69-0.94-41.43-0.42-62.13-0.4C40.463,681.273,38.953,681.093,38.193,681.003 M1459.113,730.483c-0.2,3.1-0.19,6.2-0.08,9.31
		c45.44,0.24,90.88,0.14,136.31,0.31c1.22-0.16,2.75,0.3,3.84-0.56c0.16-2.93,0.06-5.86-0.04-8.78
		C1552.473,730.433,1505.793,730.573,1459.113,730.483z"/>
	<path fill="#F2734D" stroke="#F2734D" stroke-width="0.5" d="M549.313,122.603c6.95,3.44,15.05,3.46,22.03,6.92
		c-35.05,133.02-69.94,266.08-104.95,399.1c-6.93-1.87-13.87-3.68-20.82-5.45c10.58-40.2,21.12-80.41,31.64-120.62
		c2.12-8.27,4.96-16.45,5.24-25.05c-21.55,32.89-42.52,66.18-63.85,99.22c-47.6,74.28-95.39,148.45-142.87,222.8
		c-3.71-2.29-7.35-4.67-11.01-7.01c74.58-116.3,149.25-232.54,223.81-348.86c2.13-3.81,5.97-6.63,7.13-10.95
		c13.57-51.55,27.01-103.13,40.63-154.67c-1.07-0.56-2.13-1.14-3.18-1.71c-106.57,170.67-212.83,341.53-319.4,512.19
		c0.02-3.45,0.07-6.89,0.1-10.33c-8.99-0.08-18,0.06-26.99-0.2c3.97-0.34,7.96-0.39,11.94-0.23c1.46,0.04,2.93,0.08,4.41,0.12
		c27.28-43.86,54.89-87.52,81.76-131.64c-30.53-0.08-61.06-0.07-91.59-0.17c-3.67-0.08-7.29,0.53-10.91,0.99
		c-0.44,43.71-0.23,87.44-0.32,131.16c-5.87-0.08-11.74-0.08-17.62-0.03c0.21-174.3,0.55-348.59,0.78-522.89
		c5.82-0.03,11.64-0.02,17.46,0.02c-0.02,50.25-0.17,100.49-0.16,150.74c55.02,0,110.03,0.22,165.05,0.19
		c-2.57,3.48-4.3,7.47-5.27,11.68c-53.28-0.08-106.55-0.22-159.82-0.21c-0.02,33.19-0.11,66.38-0.09,99.57
		c60.7,0.2,121.39,0.07,182.09,0.3c6.85-10.47,12.88-21.51,20.53-31.43C439.793,298.293,494.573,210.463,549.313,122.603
		 M182.483,429.893c-0.18,34.91-0.12,69.83-0.22,104.75c36.64-0.52,73.29,0.04,109.94-0.14c21.47-34.78,42.72-69.7,64.46-104.31
		C298.603,430.093,240.543,430.043,182.483,429.893z"/>
	<path fill="#F2734D" stroke="#F2734D" stroke-width="0.5" d="M492.623,135.663c3.15-4.37,5.9-9.03,9.43-13.11
		c3.74,2.63,7.56,5.12,11.19,7.91c-40.25,58.62-81.01,116.88-121.32,175.46c-3.28-3.45-7.12-6.36-11.55-8.15
		C417.783,243.733,455.203,189.693,492.623,135.663z"/>
	<path fill="#F2734D" stroke="#F2734D" stroke-width="0.5" d="M617.453,128.563c7.19-0.01,14.38-0.02,21.56,0.02
		c0.14,108.3-0.13,216.59,0.08,324.89c-0.03,21.87,0.12,43.75-0.15,65.63c-7.17-0.22-14.35,0.01-21.52-0.13
		C617.543,388.833,617.433,258.703,617.453,128.563z"/>
	<path fill="#F2734D" stroke="#F2734D" stroke-width="0.5" d="M1296.963,132.573c7.15,0.14,14.31,0.06,21.47,0.06
		c-0.03,24.25,0.14,48.5-0.03,72.74c-0.22,17.08-0.35,34.17-0.01,51.24c0.1,48.91,0.09,97.84,0.03,146.76
		c-0.19,23.76-0.39,47.53-0.01,71.29c0.25,12.63-0.02,25.26,0.08,37.9c-7.16-0.02-14.32-0.01-21.48,0.01
		c-0.2-108.35,0.09-216.7-0.12-325.06C1296.883,169.203,1296.833,150.893,1296.963,132.573z"/>
	<path fill="#FC825A" stroke="#FC825A" stroke-width="0.5" d="M745.143,134.763c7.1,0.16,14.2,0.09,21.3,0.05
		c0.13,19.89,0.04,39.77,0.1,59.66c-0.04,21.7-0.01,43.41,0.03,65.11c-0.09,41.28-0.1,82.55-0.03,123.82
		c-0.01,32.1-0.02,64.19,0.05,96.29c-0.03,12.65-0.06,25.3-0.04,37.95c-7.2,0.25-14.42-0.35-21.6,0.34
		c0.42-51.5,0.02-103.02,0.13-154.53C745.193,287.223,744.973,210.993,745.143,134.763 M746.573,135.993
		c-0.47,16.82-0.03,33.64-0.22,50.46c0.06,53.34-0.21,106.68,0.09,160.02c-0.09,56.71-0.23,113.43-0.03,170.14
		c6.31,0.2,12.64,0.37,18.95-0.07c0.24-29.36-0.3-58.72,0.01-88.08c0.02-56.28,0.25-112.56-0.02-168.83
		c-0.19-41.04,0.2-82.09,0.05-123.14C759.133,136.083,752.833,136.503,746.573,135.993z"/>
	<path fill="#FC825A" stroke="#FC825A" stroke-width="0.5" d="M1013.273,134.823c7.1,0.11,14.2,0.12,21.3,0.01
		c0.18,61.53,0.18,123.07,0.06,184.6c0.02,65.1,0.16,130.2,0.08,195.3c-7.16-0.03-14.31-0.02-21.47,0.01
		c0.01-20.71-0.01-41.42-0.03-62.13c0.01-22.39,0-44.79-0.04-67.18c0.1-42.63,0.09-85.26,0.03-127.89c0.01-30.38,0-60.76-0.05-91.14
		C1013.213,155.883,1013.083,145.353,1013.273,134.823 M1014.403,136.463c-0.42,18,0.32,35.99,0.04,53.99
		c-0.1,70.69-0.28,141.38,0.02,212.06c0.02,36.96-0.23,73.91-0.06,110.87c6.31,0.32,12.63,0.21,18.95,0.17
		c0.14-92.02,0.15-184.04,0.04-276.05c-0.08-33.7,0.25-67.4-0.06-101.09C1027.023,136.233,1020.713,136.303,1014.403,136.463z"/>
	<path fill="#F2734D" stroke="#F2734D" stroke-width="0.5" d="M1439.143,134.143c7.14,0.03,14.28,0.06,21.43,0.03
		c-0.24,112.1-0.19,224.2-0.39,336.3c0.04,14.5-0.2,29,0.03,43.49c-7.25,0.16-14.49,0.05-21.73,0.02
		C1438.813,387.373,1438.973,260.753,1439.143,134.143z"/>
	<path fill="#F2734D" stroke="#F2734D" stroke-width="0.5" d="M746.573,135.993c6.26,0.51,12.56,0.09,18.83,0.5
		c0.15,41.05-0.24,82.1-0.05,123.14c0.27,56.27,0.04,112.55,0.02,168.83c-0.31,29.36,0.23,58.72-0.01,88.08
		c-6.31,0.44-12.64,0.27-18.95,0.07c-0.2-56.71-0.06-113.43,0.03-170.14c-0.3-53.34-0.03-106.68-0.09-160.02
		C746.543,169.633,746.103,152.813,746.573,135.993z"/>
	<path fill="#FF845A" stroke="#FF845A" stroke-width="0.5" d="M1151.163,135.093c7.15,0.02,14.3,0.04,21.46,0
		c0.07,126.61,0.01,253.23,0.07,379.84c-7.16-0.04-14.31-0.02-21.46,0.01c0.02-21.43-0.02-42.87-0.04-64.3
		c0.02-21.74,0-43.48-0.04-65.22c0.13-50.95,0.07-101.89,0.02-152.84c0.02-22.06,0-44.13-0.04-66.19
		C1151.143,155.963,1151.183,145.523,1151.163,135.093 M1152.423,136.453c-0.53,19.66,0.24,39.33-0.05,58.99
		c-0.1,57.71-0.11,115.42-0.11,173.13c0.4,48.3-0.19,96.61,0.1,144.91c6.35,0.31,12.71,0.26,19.06,0.09
		c0.13-125.7,0.06-251.41,0-377.11C1165.083,136.373,1158.753,136.293,1152.423,136.453z"/>
	<path fill="#F14F1B" stroke="#F14F1B" stroke-width="0.5" d="M512.493,138.443c0.69-0.93,1.36-2.33,2.8-1.97
		c6.79,0.28,13.58,0.1,20.36,0.28c-9.08,15.43-18.9,30.42-28.24,45.69c-48.01,77.05-96.09,154.06-144.05,231.13
		c-58.67-0.09-117.35-0.06-176.03-0.17c0.01-30.6,0.11-61.2,0.11-91.8c51.54,0.01,103.09,0.19,154.63,0.18
		c0.1,9.24,5.47,18.05,13.58,22.45c11.72,6.81,28.19,3.94,36.49-6.92c6.35-7.77,7.03-19.29,2.06-27.94
		C433.543,252.343,473.133,195.473,512.493,138.443z"/>
	<path fill="#F2734D" stroke="#F2734D" stroke-width="0.5" d="M1014.403,136.463c6.31-0.16,12.62-0.23,18.93-0.05
		c0.31,33.69-0.02,67.39,0.06,101.09c0.11,92.01,0.1,184.03-0.04,276.05c-6.32,0.04-12.64,0.15-18.95-0.17
		c-0.17-36.96,0.08-73.91,0.06-110.87c-0.3-70.68-0.12-141.37-0.02-212.06C1014.723,172.453,1013.983,154.463,1014.403,136.463z"/>
	<path fill="#F2734D" stroke="#F2734D" stroke-width="0.5" d="M1152.423,136.453c6.33-0.16,12.66-0.08,19,0.01
		c0.06,125.7,0.13,251.41,0,377.11c-6.35,0.17-12.71,0.22-19.06-0.09c-0.29-48.3,0.3-96.61-0.1-144.91
		c0-57.71,0.01-115.42,0.11-173.13C1152.663,175.783,1151.893,156.113,1152.423,136.453z"/>
	<path fill="#F14F1B" stroke="#F14F1B" stroke-width="0.5" d="M573.533,137.703c13.25,0.06,26.48,0.4,39.72,0.83
		c0.35,74.34,0.02,148.69,0,223.03c0.31,53.58,0.12,107.17,0.05,160.76c-40.66,0.19-81.29,1.02-121.95,1.33
		c-6.46-0.02-12.93-0.17-19.37,0.46c22.48-85.19,44.65-170.46,67.21-255.62C550.703,224.913,562.023,181.283,573.533,137.703z"/>
	<path fill="#F2734D" stroke="#F2734D" stroke-width="0.5" d="M881.583,137.393c7.22-0.13,14.46-0.03,21.69-0.05
		c0.09,97.41-0.08,194.82,0.04,292.24c0.05,29.21,0.06,58.43-0.02,87.65c-7.19-0.04-14.39-0.04-21.58,0.02
		C881.573,390.633,881.763,264.013,881.583,137.393z"/>
	<path fill="#F14F1B" stroke="#F14F1B" stroke-width="0.5" d="M643.163,139.133c32.55,0.32,65.07,1.16,97.61,1.75
		c-0.06,7.86-0.23,15.72,0.28,23.57c-0.04,57.34-0.18,114.68-0.26,172.01c0.14,17.01-0.43,34.04,0.3,51.03
		c-0.01,44.38-0.27,88.76-0.11,133.13c-5.2,0.27-10.42-0.04-15.62,0.21c-9.29,0.7-18.61-0.14-27.9,0.51
		c-18.06,0.28-36.13-0.02-54.18,0.69c-0.07-30.5,0.4-61.01-0.19-91.5c0.09-53.67,0.15-107.35,0.22-161.02
		c-0.11-20.65,0.38-41.32-0.25-61.96C643.123,184.743,643.143,161.943,643.163,139.133z"/>
	<path fill="#F14F1B" stroke="#F14F1B" stroke-width="0.5" d="M770.623,141.603c14.26-0.14,28.52,0.46,42.78,0.75
		c21.34,0.06,42.67,1.06,64.01,1.05c-0.24,43.37,0.33,86.73,0.12,130.1c-0.05,32-0.09,64-0.12,96c-0.19,49.85,0.49,99.7,0.01,149.55
		c-26.03,0.59-52.08,0.57-78.11,0.94c-9.51,0.65-19.05-0.13-28.55,0.48c0.14-18.99,0.08-37.97,0.13-56.95
		c-0.04-9.34,0.24-18.68-0.32-28.01c0.08-55.66,0.19-111.32,0.26-166.99c-0.13-18.66,0.43-37.35-0.3-56
		C770.573,188.883,770.673,165.243,770.623,141.603z"/>
	<path fill="#F14F1B" stroke="#F14F1B" stroke-width="0.5" d="M907.363,144.043c12.68,0.47,25.37,0.59,38.06,0.67
		c21.14,0.93,42.31,0.57,63.45,1.5c0,19.76-0.04,39.53-0.08,59.29c0.72,15.66,0.19,31.34,0.31,47.02
		c-0.09,53.65-0.18,107.3-0.25,160.96c-0.23,11.68,0.61,23.35,0.32,35.04c0,22.99-0.16,45.98-0.06,68.97
		c-11.26,0.1-22.5,0.52-33.76,0.36c-10.99,0.74-22.01,0-33,0.65c-11.66-0.17-23.3,0.31-34.94,0.2c0.25-38.71,0.02-77.42-0.05-116.14
		c0.02-52.69,0.09-105.38,0.14-158.08C907.403,211.003,907.283,177.523,907.363,144.043z"/>
	<path fill="#F14F1B" stroke="#F14F1B" stroke-width="0.5" d="M1038.803,146.643c36.04,0.64,72.07,1.58,108.12,1.98
		c-0.16,16.63-0.07,33.27-0.13,49.9c-0.24,9,0.63,17.99,0.33,26.99c-0.11,63.67-0.22,127.33-0.3,191
		c0.68,33.04,0.05,66.11,0.3,99.16c-6.86,0.99-13.8,0.3-20.68,0.47c-20.69,0.64-41.41,0.21-62.1,0.89
		c-8.44-0.1-16.88-0.08-25.3,0.44c-0.06-25.31,0.06-50.63,0.07-75.95c-0.72-30.01-0.12-60.04-0.23-90.06
		c0.07-38.63,0.12-77.27,0.18-115.9c0.33-13.03-0.53-26.03-0.32-39.05C1038.753,179.883,1038.843,163.263,1038.803,146.643z"/>
	<path fill="#F14F1B" stroke="#F14F1B" stroke-width="0.5" d="M1176.733,149.433c24.56,0.06,49.09,1.15,73.65,1.22
		c14.08,0.39,28.15,0.86,42.24,0.78c-0.05,14.04-0.04,28.08-0.07,42.12c0.67,53.98,0.02,107.98,0.11,161.97
		c0.1,27-0.43,54,0.26,80.98c-0.11,25.99-0.01,51.98-0.2,77.97c-38.6-0.19-77.16,1-115.76,1.05c0.05-16.65,0.06-33.3,0.09-49.94
		c-0.09-12.71,0.34-25.42-0.33-38.11c0.14-68.99,0.22-137.98,0.36-206.97C1176.253,196.823,1177.043,173.123,1176.733,149.433z"/>
	<path fill="#F14F1B" stroke="#F14F1B" stroke-width="0.5" d="M464.503,155.043c4.12-0.66,8.15-1.73,12.09-3.1
		c-33.3,48.25-66.69,96.45-100.13,144.61c-8.73-1.99-18.11,0.24-25.08,5.83c-54.63-0.07-109.26-0.2-163.89-0.21
		c-0.04-46.94,0.15-93.87,0.11-140.81c19.73-5.55,40.42-5.91,60.77-6.54c18.32-0.6,36.65-0.11,54.96,0.36
		c38.71,0.55,77.38,2.77,116.1,2.48C434.493,157.833,449.623,157.483,464.503,155.043z"/>
	<path fill="#F14F1B" stroke="#F14F1B" stroke-width="0.5" d="M1322.483,152.123c37.46,0.76,74.91,1.6,112.37,2.11
		c-0.18,119.46-0.44,238.92-0.46,358.38c-37.25,0.21-74.49,1.18-111.74,1.08c0.19-16.71,0.08-33.42,0.14-50.14
		c-0.1-12.69,0.35-25.4-0.29-38.08c0.12-69.34,0.2-138.68,0.32-208.01C1322.053,195.693,1322.793,173.903,1322.483,152.123z"/>
	<path opacity="0.47" fill="#3B3B3B" stroke="#3B3B3B" stroke-width="0.5" enable-background="new    " d="M1013.203,257.543
		c-0.1-30.38-0.19-60.76-0.05-91.14C1013.203,196.783,1013.213,227.163,1013.203,257.543z"/>
	<path opacity="0.47" fill="#3B3B3B" stroke="#3B3B3B" stroke-width="0.5" enable-background="new    " d="M1151.173,232.583
		c-0.11-22.06-0.18-44.13-0.04-66.19C1151.173,188.453,1151.193,210.523,1151.173,232.583z"/>
	<path fill="#F14F1B" stroke="#F14F1B" stroke-width="0.5" d="M528.193,191.493c-11.46,44.7-23.22,89.35-35.08,133.95
		c-1.15,5.44-4.5,9.91-7.42,14.5c-3.94,7.74-9.06,14.78-13.63,22.15c-69.58,108.47-139.19,216.92-208.78,325.39
		c-14.34-0.98-28.73-0.92-43.08-1.91C322.913,520.903,425.563,356.203,528.193,191.493z"/>
	<path opacity="0.47" fill="#3B3B3B" stroke="#3B3B3B" stroke-width="0.5" enable-background="new    " d="M766.543,194.473
		c0.09,21.7,0.17,43.41,0.03,65.11C766.533,237.883,766.503,216.173,766.543,194.473z"/>
	<path fill="#F14F1B" stroke="#F14F1B" stroke-width="0.5" d="M105.273,201.123c18.3,1.25,36.66,0.57,54.99,0.72
		c0.06,67.15-0.32,134.31-0.16,201.46c-4.16-3.39-8.97-6.08-14.29-7.03c-11.12-2.31-23.57,2.26-29.95,11.79
		c-5.09,7.31-5.66,17.42-1.31,25.21c5.24,9.84,16.78,15.4,27.74,14.4c6.57-0.29,12.63-3.31,17.74-7.29
		c-0.27,47.07-0.11,94.14-0.33,141.2c-0.1,0.42-0.3,1.25-0.4,1.66c-23.33,0.63-46.67,1.02-70,1.75c0.02-12.34,0.12-24.69,0-37.04
		c-8.54-1.87-17.23,0.37-25.84,0.58c6.72-61.76,13.66-123.51,21.55-185.14C91.883,309.323,98.653,255.233,105.273,201.123
		 M117.873,493.123c-12.78,3.15-23.44,14.94-23.33,28.41c-0.12,12.1,8.47,23.11,19.59,27.28c13.21,5.36,29.77,1.57,38.69-9.73
		c7.01-8.43,8.07-21.19,2.8-30.75C148.573,495.263,131.943,489.203,117.873,493.123z"/>
	<path fill="#FFFFFF" stroke="#FFFFFF" stroke-width="0.5" d="M1318.393,256.613c-0.34-17.07-0.21-34.16,0.01-51.24
		C1318.483,222.453,1318.553,239.533,1318.393,256.613z"/>
	<path fill="#FF6A00" stroke="#FF6A00" stroke-width="0.5" d="M1574.193,244.243c3.53-3.29,8.85-4.85,13.48-3.05
		c6.12,2.31,10.03,8.24,12.02,14.23c1.92,5.5,1.98,11.42,1.55,17.17c-11.92-3.36-23.85-6.69-35.75-10.11
		C1566.653,255.793,1568.943,248.863,1574.193,244.243z"/>
	<path fill="#FFFFFF" stroke="#FFFFFF" stroke-width="0.5" d="M1486.623,252.123c4.7,3.54,6.94,9.16,9.95,14.03
		c11.91-0.67,23.84-0.76,35.76-1.39c24.69-1.52,49.04,5.1,71.92,13.83c14.75,5.77,27.31,16,37.56,27.94
		c-5.7,1.78-12.26,3.57-15.58,8.99c-2.7,5.13-1.01,11.16,0.62,16.37c4.12,11.12,10.15,21.45,16.76,31.27
		c-3.33-0.68-6.83-1.84-10.19-0.79c-2.83,0.96-4.7,3.42-6.38,5.74c3.24,2.46,7.02,4.2,10.02,7c4.11,1.14,8.44,1.17,12.63,0.38
		c1.75,5.99,3.77,11.92,4.72,18.1c1.13,5.25,1.14,10.67,2.35,15.91c-3.15,2.81-6.3,5.95-7.56,10.1c-3.04,9.09-0.98,18.71-0.5,28.02
		c2.12,27.3,3.94,54.63,6.3,81.91c-14.81,6.16-27.37,17.04-36.41,30.21c-12.56,17.98-20.01,38.86-26.99,59.48
		c-2.03-0.65-4.16-0.76-6.24-0.7c-37.87,0.05-75.74-0.1-113.61-0.02c4.73-102.27,2.03-204.72,6.23-307
		c0.81-15.37,1.44-30.8,3.92-46.01C1482.803,260.853,1483.593,255.933,1486.623,252.123 M1515.923,313.183
		c-6.74,1.64-12.08,6.92-14.61,13.26c-4.98,12.04-5.8,25.25-6.6,38.11c-0.67,9.65,0.63,19.28,0.37,28.93
		c0.32,11.39,0.47,23.63,6.79,33.58c5.08,7.81,14.13,11.64,22.68,14.33c8.4,2.77,17.33,3.43,25.66,6.41
		c13.97,4.2,28.49,6.36,43.02,7.4c8.09,0.41,16.48,0.49,24.22-2.23c6.23-2.16,10.82-7.53,13.07-13.61
		c5.38-12.89,5.88-27.31,3.52-40.94c-3.14-18.38-8.21-37-18.97-52.49c-4.59-7.19-9.57-14.39-16.42-19.63
		c-9.67-7.82-21.97-11.51-34.14-13.05c-10.99-1.59-22.1-0.86-33.14-1.34C1526.193,311.773,1520.953,311.903,1515.923,313.183
		 M1500.663,470.783c-4.64,2.5-2.73,10.22,1.7,11.74c5.59,0.1,10.68-2.92,16.21-3.45c1.53-0.18,3.84-0.5,4.49,1.38
		c1.12,5.4-2.3,10.48-1.8,15.89c1.69,0.09,3.4,0.13,5.14,0.15c1.75-6.2,4.03-12.44,4.04-18.96c0.21-3.01-2.05-6.01-5.15-6.21
		c-5.93-0.71-11.89,0.76-17.84,0.28C1505.143,471.623,1502.943,470.603,1500.663,470.783z"/>
	<path fill="#808080" stroke="#808080" stroke-width="0.5" d="M362.783,300.073c7.02-1.92,14.87-0.91,20.98,3.12
		c6.77,4.27,11.16,12.3,10.44,20.36c-0.55,7.49-5.31,14.32-11.84,17.9c-9.45,5.35-22.33,3.91-30.1-3.78
		c-5.56-5.27-8.22-13.58-6.16-21.04C348.083,308.583,354.893,302.253,362.783,300.073 M369.913,319.063
		c-1.76-0.01-2.94,2.19-1.91,3.62c0.75,1.7,3.47,1.58,4.23-0.08C373.273,321.043,371.603,318.813,369.913,319.063z"/>
	<path stroke="#000000" stroke-width="0.5" d="M1515.923,313.183c5.03-1.28,10.27-1.41,15.45-1.27c11.04,0.48,22.15-0.25,33.14,1.34
		c12.17,1.54,24.47,5.23,34.14,13.05c6.85,5.24,11.83,12.44,16.42,19.63c10.76,15.49,15.83,34.11,18.97,52.49
		c2.36,13.63,1.86,28.05-3.52,40.94c-2.25,6.08-6.84,11.45-13.07,13.61c-7.74,2.72-16.13,2.64-24.22,2.23
		c-14.53-1.04-29.05-3.2-43.02-7.4c-8.33-2.98-17.26-3.64-25.66-6.41c-8.55-2.69-17.6-6.52-22.68-14.33
		c-6.32-9.95-6.47-22.19-6.79-33.58c0.26-9.65-1.04-19.28-0.37-28.93c0.8-12.86,1.62-26.07,6.6-38.11
		C1503.843,320.103,1509.183,314.823,1515.923,313.183 M1516.663,319.823c-3.24,1.86-4.92,5.42-6.34,8.71
		c-3.37,8.59-4.73,17.78-6.2,26.84c-2.03,15.61-3.41,31.38-2.69,47.13c0.34,6.33,0.99,12.78,3.3,18.74c0.86,1.9,1.66,4.19,3.73,5.11
		c7.1,3.51,14.39,6.69,22,8.93c19.92,6.2,39.93,12.89,60.79,14.98c8.84,0.83,18.31,0.78,26.34-3.52
		c6.41-3.4,10.42-10.28,11.26-17.38c3.33-16.68-0.07-33.74-4.55-49.86c-4.37-15.69-11.45-31.2-23.2-42.73
		c-7.15-4.83-14.52-9.79-22.8-12.38c-18.75-3.51-37.88-4.28-56.89-5.04C1519.813,319.423,1518.103,319.063,1516.663,319.823z"/>
	<path fill="#030303" stroke="#030303" stroke-width="0.5" d="M369.913,319.063c1.69-0.25,3.36,1.98,2.32,3.54
		c-0.76,1.66-3.48,1.78-4.23,0.08C366.973,321.253,368.153,319.053,369.913,319.063z"/>
	<path opacity="0.47" fill="#3B3B3B" stroke="#3B3B3B" stroke-width="0.5" enable-background="new    " d="M1516.663,319.823
		c1.44-0.76,3.15-0.4,4.75-0.47c19.01,0.76,38.14,1.53,56.89,5.04c8.28,2.59,15.65,7.55,22.8,12.38
		c11.75,11.53,18.83,27.04,23.2,42.73c4.48,16.12,7.88,33.18,4.55,49.86c-0.84,7.1-4.85,13.98-11.26,17.38
		c-8.03,4.3-17.5,4.35-26.34,3.52c-20.86-2.09-40.87-8.78-60.79-14.98c-7.61-2.24-14.9-5.42-22-8.93c-2.07-0.92-2.87-3.21-3.73-5.11
		c-2.31-5.96-2.96-12.41-3.3-18.74c-0.72-15.75,0.66-31.52,2.69-47.13c1.47-9.06,2.83-18.25,6.2-26.84
		C1511.743,325.243,1513.423,321.683,1516.663,319.823z"/>
	<path opacity="0.47" fill="#3B3B3B" stroke="#3B3B3B" stroke-width="0.5" enable-background="new    " d="M766.543,383.403
		c0.1,32.1,0.17,64.2,0.05,96.29C766.523,447.593,766.533,415.503,766.543,383.403z"/>
	<path opacity="0.47" fill="#3B3B3B" stroke="#3B3B3B" stroke-width="0.5" enable-background="new    " d="M1013.213,452.613
		c-0.13-22.39-0.17-44.79-0.04-67.18C1013.213,407.823,1013.223,430.223,1013.213,452.613z"/>
	<path opacity="0.47" fill="#3B3B3B" stroke="#3B3B3B" stroke-width="0.5" enable-background="new    " d="M1151.193,450.643
		c-0.12-21.74-0.18-43.49-0.04-65.22C1151.193,407.163,1151.213,428.903,1151.193,450.643z"/>
	<radialGradient id="SVGID_1_" cx="1666.236" cy="366.9528" r="40.3355" gradientUnits="userSpaceOnUse">
		<stop  offset="0" style="stop-color:#E5E2DF"/>
		<stop  offset="0" style="stop-color:#F1EFEE"/>
		<stop  offset="0" style="stop-color:#FFFFFF"/>
		<stop  offset="0.1259" style="stop-color:#F0F0F1"/>
		<stop  offset="0.3664" style="stop-color:#C9CACB"/>
		<stop  offset="0.5225" style="stop-color:#ADAEB0"/>
		<stop  offset="0.6029" style="stop-color:#A3A5A7"/>
		<stop  offset="0.7382" style="stop-color:#898D90"/>
		<stop  offset="0.9108" style="stop-color:#5F6769"/>
		<stop  offset="1" style="stop-color:#465053"/>
	</radialGradient>
	<path fill="url(#SVGID_1_)" stroke="#686868" stroke-width="0.5" d="M1675.303,354.853c0.32-3.38-0.42-6.76-0.98-10.08
		c0.03-4.02-1.24-7.91-2.18-11.78c-0.86-3.95-2.14-8.73-5.74-11.02c-3.74,2.1-5.08,7.09-5.9,11.07c-0.85,3.21-2.02,6.45-1.91,9.82
		c-2.32,13.21-2.65,26.88-0.99,40.2c-0.35,2.69,0.35,5.36,0.9,7.99c-0.02,2.02,0.56,3.99,1.04,5.95c0.32,4.36,1.93,8.63,4.06,12.43
		c0.64,1.48,2.24,1.91,3.62,2.5c2.08-3.36,4.35-6.88,4.8-10.9c1.14-3.92,1.95-7.92,2.48-11.97c0.33-3.3,1.1-6.61,0.74-9.94
		C1676.103,371.073,1676.133,362.903,1675.303,354.853z"/>
	<path fill="#F14F1B" stroke="#F14F1B" stroke-width="0.5" d="M466.013,410.093c2.71-3.98,4.92-8.32,8.03-12.02
		c-11,41.45-21.67,82.97-32.67,124.41c-1.11,2.94,0.55,6.21-1.04,9.03c-11.69,26.52-23.35,53.13-37.52,78.45
		c-9.8,17.21-20.57,34.22-34.97,48c-11.72,11.72-26.71,19.97-42.67,24.3c-12.06,3.39-24.59,4.74-37.08,5.26
		C347.263,594.963,406.733,502.583,466.013,410.093z"/>
	<path fill="#FFFFFF" stroke="#FFFFFF" stroke-width="0.5" d="M1318.413,474.663c-0.38-23.76-0.18-47.53,0.01-71.29
		C1318.473,427.133,1318.563,450.903,1318.413,474.663z"/>
	<path fill="#808080" stroke="#808080" stroke-width="0.5" d="M159.753,418.563c-0.1-3.84,0.42-7.76-0.53-11.53v-0.16
		c-4.69-4.23-10.52-7.39-16.92-7.79c-9.05-0.85-18.63,3.15-23.73,10.81c-4.69,6.69-4.88,16.14-0.46,23.01
		c4.99,8.14,14.98,12.45,24.36,11.51c6.45-0.5,12.5-3.59,16.99-8.19C160.033,430.353,159.633,424.453,159.753,418.563z
		 M141.663,422.863c-2.34,2.25-5.63-2.08-2.95-3.78C141.043,417.013,144.233,421.153,141.663,422.863z"/>
	<path stroke="#000000" stroke-width="0.5" d="M138.713,419.083c2.33-2.07,5.52,2.07,2.95,3.78
		C139.323,425.113,136.033,420.783,138.713,419.083z"/>
	<linearGradient id="SVGID_2_" gradientUnits="userSpaceOnUse" x1="1731.408" y1="421.0843" x2="1726.8275" y2="450.0041">
		<stop  offset="0" style="stop-color:#8A949B"/>
		<stop  offset="0.1629" style="stop-color:#FFFFFF"/>
		<stop  offset="0.767" style="stop-color:#437A7F"/>
		<stop  offset="1" style="stop-color:#64747E"/>
	</linearGradient>
	<path fill="url(#SVGID_2_)" stroke="#FDFDFD" stroke-width="0.5" d="M1803.533,451.243l-0.25-1.37c-0.33-1.63-0.94-3.2-1.53-4.74
		c-1.68-3.17-4.11-5.88-7-7.99c-4.42-3.2-9.5-5.29-14.66-6.95c-18.52-6.09-37.92-8.91-57.17-11.56c-8.97-1.12-17.91-2.53-26.93-3.13
		c-9.18-1.55-18.38,0.14-27.58,0.28c-3.41,0.28-6.59-1.04-9.54-2.57c-1.57,1.53-3.11,3.08-4.45,4.81c-0.84,1.85-1.54,3.76-2,5.74
		c-0.78,4.76-0.74,9.61-0.23,14.4c43.55,5.75,87.17,11.29,130.34,19.55c5.98,1.24,12,2.36,17.89,4.05c0.77-0.04,2.3-0.11,3.07-0.14
		C1804.363,458.273,1803.633,454.673,1803.533,451.243z"/>
	<path stroke="#000000" stroke-width="0.5" d="M182.483,429.893c58.06,0.15,116.12,0.2,174.18,0.3
		c-21.74,34.61-42.99,69.53-64.46,104.31c-36.65,0.18-73.3-0.38-109.94,0.14C182.363,499.723,182.303,464.803,182.483,429.893
		 M187.413,433.763c-0.25,32.25-0.11,64.5-0.23,96.75c34.4,0,68.81-0.04,103.22,0.06c20.04-32.17,40.13-64.31,60.12-96.51
		C296.153,433.993,241.783,433.973,187.413,433.763z"/>
	<path fill="#F14F1B" stroke="#F14F1B" stroke-width="0.5" d="M187.413,433.763c54.37,0.21,108.74,0.23,163.11,0.3
		c-19.99,32.2-40.08,64.34-60.12,96.51c-34.41-0.1-68.82-0.06-103.22-0.06C187.303,498.263,187.163,466.013,187.413,433.763z"/>
	<path fill="#FFFFFF" stroke="#FFFFFF" stroke-width="0.5" d="M1652.413,442.333c45.42,6.31,91.04,11.73,136.01,20.91
		c13.2,2.88,26.51,5.91,38.87,11.52c7.12,3.37,14.16,8.31,17.21,15.88c3.56,8.81,3.02,18.56,2.82,27.87
		c-0.84,14.56-3.33,28.95-5.33,43.38c-14.7-11.5-31.97-19.17-49.52-25.18c-24.59-8.23-50.22-13.38-76.1-15.01
		c-19.29-0.75-39.08-0.3-57.45,6.28C1656.873,499.423,1654.763,470.863,1652.413,442.333z"/>
	<path stroke="#000000" stroke-width="0.5" d="M1500.663,470.783c2.28-0.18,4.48,0.84,6.79,0.82c5.95,0.48,11.91-0.99,17.84-0.28
		c3.1,0.2,5.36,3.2,5.15,6.21c-0.01,6.52-2.29,12.76-4.04,18.96c-1.74-0.02-3.45-0.06-5.14-0.15c-0.5-5.41,2.92-10.49,1.8-15.89
		c-0.65-1.88-2.96-1.56-4.49-1.38c-5.53,0.53-10.62,3.55-16.21,3.45C1497.933,481.003,1496.023,473.283,1500.663,470.783z"/>
	<path fill="#383838" stroke="#383838" stroke-width="0.5" d="M1464.403,487.563c1.38-0.07,2.78-0.14,4.2-0.21
		c-0.61,25.71-1.48,51.4-2,77.11c-0.12,1.47-0.28,2.95-0.45,4.43c-1.76-7.78-0.19-15.78-1.23-23.63
		c-1.35,19.05-1.89,38.17-3.45,57.22c-0.63,16.66-2.34,33.25-2.37,49.93c-2.12,0.09-4.23,0.21-6.31,0.37
		c-1.3-7.03,0.13-14.19,0.57-21.23c0.57-20.71,2.74-41.36,3.16-62.05c1.32-5.26,0.06-10.67,0.84-15.99
		c1.34-11.18,1.72-22.46,3.33-33.61c0.83-0.35,1.69-0.7,2.56-1.03c-1.43-0.28-2.84-0.56-4.23-0.83c1.74-0.12,3.49-0.24,5.27-0.36
		C1464.393,507.643,1464.263,497.603,1464.403,487.563z"/>
	<path stroke="#000000" stroke-width="0.5" d="M117.873,493.123c14.07-3.92,30.7,2.14,37.75,15.21c5.27,9.56,4.21,22.32-2.8,30.75
		c-8.92,11.3-25.48,15.09-38.69,9.73c-11.12-4.17-19.71-15.18-19.59-27.28C94.433,508.063,105.093,496.273,117.873,493.123
		 M119.783,496.013c-9.68,2.12-18.39,9.37-21.05,19.08c-2.5,8.58,0.37,18.22,6.77,24.35c8.27,8.25,21.43,10.58,32.26,6.55
		c9.52-3.4,17.3-12.28,17.91-22.58c0.78-8.53-3.53-16.98-10.3-22.04C138.203,495.873,128.553,494.063,119.783,496.013z"/>
	<path fill="#808080" stroke="#808080" stroke-width="0.5" d="M119.783,496.013c8.77-1.95,18.42-0.14,25.59,5.36
		c6.77,5.06,11.08,13.51,10.3,22.04c-0.61,10.3-8.39,19.18-17.91,22.58c-10.83,4.03-23.99,1.7-32.26-6.55
		c-6.4-6.13-9.27-15.77-6.77-24.35C101.393,505.383,110.103,498.133,119.783,496.013 M125.903,519.073
		c-1.47,0.07-2.84,1.69-2.23,3.14c0.47,1.69,2.94,2.41,4.08,0.95C129.493,521.773,127.853,518.833,125.903,519.073z"/>
	<path fill="#515151" stroke="#515151" stroke-width="0.5" d="M1374.353,517.463c19.01,0.2,38.01-0.97,57.01-0.54
		c6.03,1.08,12.15,1.1,18.26,0.83c-2.82,44.92-6.87,89.77-9.71,134.7c-6.74,1.49-13.7,0.27-20.52,0.98
		c-23.38,0.21-46.75,0.91-70.12,1.22c0-23.38,0.08-46.77,0.06-70.16c0.42-3.3-2.65-6.08-5.87-5.64
		c-65.03-0.06-130.07-0.24-195.11-0.25c-3.29-0.42-6.15,2.59-5.69,5.84c-0.05,24.68-0.06,49.37-0.12,74.06
		c-25.72,0.91-51.46,0.93-77.19,1.59c-53.27,1.03-106.54,2.11-159.81,3.01c-2.8-17.76-13.58-33.2-26.67-45.05
		c-20.42-18.29-45.7-30.22-71.52-38.77c-45.63-14.83-94.18-18.94-141.9-16.2c-38.73,2.65-77.51,10.34-113.09,26.21
		c-18.05,8.22-35.43,18.61-49.45,32.79c-5.77,6.18-11.92,12.14-16.36,19.4c-8.53,13.86-10.68,30.36-13.18,46.14
		c-0.56,11.27-9.16,20.94-19.22,25.25c9.77-12.27,10.55-31.44,0.63-43.81c-3.06-3.54-7.71-6.22-12.51-5.43
		c-4.18,0.49-7.39,3.44-10.34,6.17c0.02-22.86,2.33-45.64,4.67-68.35c2.45-22.88,5.33-45.71,8.29-68.52
		c0.53-1.62,0.46-4.18,2.22-4.88c7.52,1.6,14.82,4.1,22.36,5.65c0.41-1.75,0.81-3.49,1.22-5.22c5.52-0.94,11.14-0.52,16.72-0.56
		C783.063,524.423,1078.703,521.023,1374.353,517.463z"/>
	<path fill="#996C5E" stroke="#996C5E" stroke-width="0.5" d="M744.953,517.983c7.18-0.69,14.4-0.09,21.6-0.34l-0.07,0.84
		C759.313,518.043,752.053,519.093,744.953,517.983z"/>
	<path fill="#030303" stroke="#030303" stroke-width="0.5" d="M125.903,519.073c1.95-0.24,3.59,2.7,1.85,4.09
		c-1.14,1.46-3.61,0.74-4.08-0.95C123.063,520.763,124.433,519.143,125.903,519.073z"/>
	<path fill="#464646" stroke="#464646" stroke-width="0.5" d="M1445.243,652.823c4.87-44.9,9.06-89.87,13.78-134.78
		c1.39,0.27,2.8,0.55,4.23,0.83c-0.87,0.33-1.73,0.68-2.56,1.03c-1.61,11.15-1.99,22.43-3.33,33.61
		c-0.78,5.32,0.48,10.73-0.84,15.99c-0.42,20.69-2.59,41.34-3.16,62.05c-0.44,7.04-1.87,14.2-0.57,21.23
		C1450.263,652.803,1447.743,652.813,1445.243,652.823z"/>
	<path fill="#2A2A2A" stroke="#2A2A2A" stroke-width="0.5" d="M1461.473,602.483c1.56-19.05,2.1-38.17,3.45-57.22
		c1.04,7.85-0.53,15.85,1.23,23.63c0.98,5.85-0.07,11.79,0.01,17.68c-0.04,12.64-0.95,25.26-0.95,37.91
		c0.08,2.94-0.14,6.1,1.34,8.78c1.28,2.62,3.24,4.89,4.24,7.67c0.32,3.08-0.54,6.14-0.91,9.19c0.34,0.35,1.03,1.04,1.37,1.39
		c-3.99,0.9-8.09,1.07-12.15,0.9C1459.133,635.733,1460.843,619.143,1461.473,602.483z"/>
	<path fill="#F14F1B" stroke="#F14F1B" stroke-width="0.5" d="M187.133,549.963c30.37,0.06,60.73,0.12,91.1,0.13
		c-26.47,42.57-53.13,85.02-79.47,127.66c-3.98-0.16-7.97-0.11-11.94,0.23C187.213,635.313,187.033,592.633,187.133,549.963z"/>
	<path fill="#FFD800" stroke="#FFD800" stroke-width="0.5" d="M1146.093,582.053c25.76-0.45,51.54,0,77.3-0.09
		c40.01,0.08,80.03,0.11,120.04,0.22c1.43-0.24,3.07,0.51,2.65,2.21c-0.01,42.39-0.13,84.77-0.18,127.16
		c-0.27,3.3,0.61,6.89-0.49,10.04c-5.58,0.95-11.39,0.12-17.06,0.38c-60.79-0.14-121.57-0.16-182.35-0.34
		c-0.59-10.36-0.08-20.75-0.22-31.12C1145.923,654.363,1145.733,618.203,1146.093,582.053 M1241.843,608.083
		c-6.79,1.67-12.94,8.49-11.07,15.79c2.25,8.65,12.51,12.62,20.66,10.72c7.17-1.18,14.01-7.96,12.39-15.63
		C1261.753,609.583,1250.363,605.513,1241.843,608.083z"/>
	<path fill="#0E0E0E" stroke="#0E0E0E" stroke-width="0.5" d="M765.843,606.953c29.53-11.6,64.7-7.76,90.81,10.37
		c7.41,4.68,13.4,11.13,19.47,17.37c3.48,3.65,6.31,7.83,9.12,11.99c1.05,1.7,2.32,3.42,2.58,5.47c0.1,1.51,0.12,3.02,0.17,4.54
		c-5.42-9.53-13.76-16.86-22.25-23.58c-6.7-4.48-13.15-9.66-21.05-11.88c-6.58-1.86-12.87-5.61-19.88-5.25
		c-7.76-1.3-15.49-3.05-23.41-2.64c-18.69-0.53-37.18,6.03-52.03,17.21c-17.02,12.5-28.67,31.6-33.43,52.06
		c-0.31-0.52-0.92-1.56-1.23-2.07c-1.78,8.35-4.05,16.69-4.53,25.25c0.15,13.35,2.09,26.76,6.57,39.37c1.21,4.1,2.92,8.06,5.3,11.63
		c-0.22,0.53-0.65,1.58-0.87,2.11c-19.35-25.9-24.17-61.69-13.36-92.05c4.99-14.26,13.5-27.08,23.85-38
		C741.773,619.813,752.923,611.483,765.843,606.953z"/>
	<path fill="#242424" stroke="#242424" stroke-width="0.5" d="M1730.783,600.953c17.73-1.94,36.05,1.61,51.62,10.35
		c16.01,8.77,29.04,22.62,37.36,38.82c9.88,19.08,13.13,41.43,9.41,62.57c-3.16,17.52-10.73,34.6-23.41,47.32
		c-12.94,13.36-30.09,22.56-48.4,25.85c-18.44,2.84-37.89,0.81-54.69-7.63c-33.12-15.92-55.4-52.87-52.1-89.76
		c1.98-33.41,22.48-65.55,53.08-79.74C1712.173,604.643,1721.413,602.113,1730.783,600.953 M1728.763,607.993
		c-19.99,2.6-38.81,12.62-52.38,27.47c-10.66,11.8-18.16,26.47-21.13,42.11c-3.85,19.18-0.76,39.56,8.16,56.93
		c8.03,17.42,21.76,32.3,38.9,41.04c17.96,9.41,39.57,11.56,59.05,5.95c16.07-4.44,30.43-14.14,41.23-26.76
		c9.08-9.96,16.33-21.71,20.26-34.64c5.83-19.02,5.14-40.09-2.46-58.51c-7.23-18.38-21.15-33.95-38.38-43.53
		C1765.933,609.123,1746.983,605.513,1728.763,607.993z"/>
	<path fill="#1E1E1E" stroke="#1E1E1E" stroke-width="0.5" d="M574.643,602.993c18.57-2.55,37.79,0.58,54.73,8.54
		c17.92,8.65,33.16,22.72,43.17,39.92c16.91,28.64,18.09,65.7,3.2,95.42c-7.28,14.2-17.57,27.11-30.76,36.23
		c-18.31,12.99-41.22,19.22-63.59,17.37c-33.2-2.25-64.2-23.05-79.37-52.59c-19.11-35.17-14.48-81.67,11.63-112.09
		C529.033,617.853,551.193,605.933,574.643,602.993 M575.793,615.023c-25.15,3.41-48.45,18.33-62.13,39.7
		c-10.99,16.62-15.84,37.09-13.93,56.89c2.69,30.14,21.98,58.1,49.25,71.23c20.72,10.42,45.54,11.83,67.53,4.68
		c15.57-5.34,29.74-14.92,40.22-27.64c10.59-12.54,17.32-28.17,19.71-44.37c3.02-21.19-1.96-43.41-13.81-61.24
		c-8.54-13.26-20.85-23.93-34.94-30.95C611.753,615.323,593.423,612.613,575.793,615.023z"/>
	<path fill="#050400" stroke="#050400" stroke-width="0.5" d="M1241.843,608.083c8.52-2.57,19.91,1.5,21.98,10.88
		c1.62,7.67-5.22,14.45-12.39,15.63c-8.15,1.9-18.41-2.07-20.66-10.72C1228.903,616.573,1235.053,609.753,1241.843,608.083
		 M1234.953,617.763c-0.16,0.54-0.47,1.61-0.63,2.15c8.58-0.14,17.16-0.17,25.75-0.41c-0.11-0.41-0.34-1.23-0.45-1.65
		C1255.143,608.303,1239.503,608.263,1234.953,617.763z"/>
	<path stroke="#000000" stroke-width="0.5" d="M1728.763,607.993c18.22-2.48,37.17,1.13,53.25,10.06
		c17.23,9.58,31.15,25.15,38.38,43.53c7.6,18.42,8.29,39.49,2.46,58.51c-3.93,12.93-11.18,24.68-20.26,34.64
		c-10.8,12.62-25.16,22.32-41.23,26.76c-19.48,5.61-41.09,3.46-59.05-5.95c-17.14-8.74-30.87-23.62-38.9-41.04
		c-8.92-17.37-12.01-37.75-8.16-56.93c2.97-15.64,10.47-30.31,21.13-42.11C1689.953,620.613,1708.773,610.593,1728.763,607.993
		 M1728.613,613.923c-11.82,1.67-23.26,6.04-33.14,12.76c-28.38,18.96-43.4,56.72-33.92,89.79c5.16,18.8,17.33,35.57,33.59,46.31
		c13.01,8.66,28.58,13.5,44.22,13.59c19.85,0.3,39.7-7.08,54.55-20.26c10.93-9.72,19.86-22.26,23.32-36.63
		c4.23-16.11,3.82-33.42-1.4-49.25c-5.76-17.82-17.55-33.71-33.23-44.01C1766.903,615.703,1747.323,611.213,1728.613,613.923z"/>
	<path fill="#FFBE26" stroke="#FFBE26" stroke-width="0.5" d="M1855.753,611.493c4.14-5,12.38-5.89,17.58-1.94
		c6.81,4.99,9.89,13.76,9.95,21.97c0.27,8.84-2.9,18.16-9.98,23.8l-0.42,0.02c-4.71,0.2-10.19,1.2-14.05-2.2
		c-7.4-6.1-9.53-16.46-8.63-25.59C1850.493,621.743,1853.753,616.793,1855.753,611.493z"/>
	<path fill="#F8D200" stroke="#F8D200" stroke-width="0.5" d="M1234.953,617.763c4.55-9.5,20.19-9.46,24.67,0.09
		C1251.423,618.613,1243.123,618.783,1234.953,617.763z"/>
	<path fill="#CC9473" stroke="#CC9473" stroke-width="0.5" d="M1849.833,619.933c1.32-3.19,3.02-6.4,5.92-8.44
		c-2,5.3-5.26,10.25-5.55,16.06c-0.9,9.13,1.23,19.49,8.63,25.59c3.86,3.4,9.34,2.4,14.05,2.2c-2.82,1.82-6.26,2.75-9.58,2.07
		c-5.58-0.95-9.87-5.39-12.35-10.25C1846.763,638.783,1846.433,628.643,1849.833,619.933z"/>
	<path stroke="#000000" stroke-width="0.5" d="M749.373,630.553c14.85-11.18,33.34-17.74,52.03-17.21
		c7.92-0.41,15.65,1.34,23.41,2.64c10.77,3.72,21.37,8.54,30.21,15.86c10.07,7.7,17.87,18.02,23.94,29.07
		c9.84,19.67,12.57,42.92,6.99,64.25c-5.47,21.55-19.13,41.06-38.01,52.95c-25.65,16.99-60.71,18.44-87.6,3.44
		c-34.76-18.06-53.69-61.01-44.4-98.94C720.703,662.153,732.353,643.053,749.373,630.553 M788.823,619.103
		c-13.6,2.16-26.64,7.82-37.44,16.36c-13.87,10.82-24.17,26.1-29.13,42.96c-5.55,19.38-4.32,40.71,3.92,59.15
		c10.94,25.16,34.94,44.34,62.18,48.48c20.96,3.44,43.18-1.7,60.38-14.2c21.71-15.45,35.27-41.67,35.17-68.34
		c0.66-28.24-13.89-56.4-37.61-71.83C829.613,620.453,808.653,615.963,788.823,619.103z"/>
	<path fill="#404040" stroke="#404040" stroke-width="0.5" d="M1728.613,613.923c18.71-2.71,38.29,1.78,53.99,12.3
		c15.68,10.3,27.47,26.19,33.23,44.01c5.22,15.83,5.63,33.14,1.4,49.25c-3.46,14.37-12.39,26.91-23.32,36.63
		c-14.85,13.18-34.7,20.56-54.55,20.26c-15.64-0.09-31.21-4.93-44.22-13.59c-16.26-10.74-28.43-27.51-33.59-46.31
		c-9.48-33.07,5.54-70.83,33.92-89.79C1705.353,619.963,1716.793,615.593,1728.613,613.923 M1733.843,627.093
		c-17.58,1.76-34.18,11-45.05,24.91c-13.66,16.95-18.22,40.62-12.28,61.51c4.29,15.47,14.19,29.34,27.58,38.22
		c14.72,10.03,33.68,13.44,51,9.36c15.54-3.52,29.47-13.12,38.76-26.01c8.59-12,13.29-26.81,12.84-41.59
		c-0.08-20.9-10.61-41.41-27.44-53.77C1766.353,630.133,1749.863,625.373,1733.843,627.093z"/>
	<path stroke="#000000" stroke-width="0.5" d="M575.793,615.023c17.63-2.41,35.96,0.3,51.9,8.3c14.09,7.02,26.4,17.69,34.94,30.95
		c11.85,17.83,16.83,40.05,13.81,61.24c-2.39,16.2-9.12,31.83-19.71,44.37c-10.48,12.72-24.65,22.3-40.22,27.64
		c-21.99,7.15-46.81,5.74-67.53-4.68c-27.27-13.13-46.56-41.09-49.25-71.23c-1.91-19.8,2.94-40.27,13.93-56.89
		C527.343,633.353,550.643,618.433,575.793,615.023 M576.643,619.933c-16.88,2.21-33.01,9.83-45.44,21.46
		c-12.15,11.16-20.83,26.01-24.68,42.04c-4.31,18.05-2.56,37.62,5.49,54.4c8.76,18.58,24.62,33.64,43.62,41.43
		c12.95,5.31,27.28,7.5,41.21,5.92c17.26-1.63,33.86-9.01,46.86-20.44c14.4-12.61,24.3-30.31,27.25-49.25
		c2.62-15.67,0.3-32.05-6.06-46.57c-7.29-16.45-20.04-30.45-35.83-39.11C613.283,620.943,594.563,617.443,576.643,619.933z"/>
	<path fill="#151515" stroke="#151515" stroke-width="0.5" d="M824.813,615.983c7.01-0.36,13.3,3.39,19.88,5.25
		c7.9,2.22,14.35,7.4,21.05,11.88c8.49,6.72,16.83,14.05,22.25,23.58c-0.05-1.52-0.07-3.03-0.17-4.54
		c6.05,9.45,9.3,20.43,11.28,31.4c4.88,27.96-2.87,57.88-20.9,79.83c-17.37,21.59-44.17,35.38-71.9,36.54
		c-15.95,0.88-31.99-2.41-46.55-8.91c-15.17-7.43-28.77-18.28-38.57-32.11c0.22-0.53,0.65-1.58,0.87-2.11
		c-2.38-3.57-4.09-7.53-5.3-11.63c-4.48-12.61-6.42-26.02-6.57-39.37c0.48-8.56,2.75-16.9,4.53-25.25c0.31,0.51,0.92,1.55,1.23,2.07
		c-9.29,37.93,9.64,80.88,44.4,98.94c26.89,15,61.95,13.55,87.6-3.44c18.88-11.89,32.54-31.4,38.01-52.95
		c5.58-21.33,2.85-44.58-6.99-64.25c-6.07-11.05-13.87-21.37-23.94-29.07C846.183,624.523,835.583,619.703,824.813,615.983z"/>
	<path fill="#F9EA00" stroke="#F9EA00" stroke-width="0.5" d="M1234.953,617.763c8.17,1.02,16.47,0.85,24.67,0.09
		c0.11,0.42,0.34,1.24,0.45,1.65c-8.59,0.24-17.17,0.27-25.75,0.41C1234.483,619.373,1234.793,618.303,1234.953,617.763z"/>
	<path fill="#404040" stroke="#404040" stroke-width="0.5" d="M788.823,619.103c19.83-3.14,40.79,1.35,57.47,12.58
		c23.72,15.43,38.27,43.59,37.61,71.83c0.1,26.67-13.46,52.89-35.17,68.34c-17.2,12.5-39.42,17.64-60.38,14.2
		c-27.24-4.14-51.24-23.32-62.18-48.48c-8.24-18.44-9.47-39.77-3.92-59.15c4.96-16.86,15.26-32.14,29.13-42.96
		C762.183,626.923,775.223,621.263,788.823,619.103 M788.933,641.193c-17.05,3.03-32.49,13.52-41.83,28.06
		c-14.39,21.61-13.18,52.25,3.04,72.56c9.55,12.36,23.74,21.15,39.2,23.71c16.14,2.94,33.39-0.83,46.78-10.31
		c11.61-8.06,20.5-20.06,24.51-33.64c5.09-16.18,2.91-34.32-5.35-49.07c-6.18-10.77-15.47-19.78-26.54-25.44
		C816.573,640.843,802.373,638.833,788.933,641.193z"/>
	<path fill="#404040" stroke="#404040" stroke-width="0.5" d="M576.643,619.933c17.92-2.49,36.64,1.01,52.42,9.88
		c15.79,8.66,28.54,22.66,35.83,39.11c6.36,14.52,8.68,30.9,6.06,46.57c-2.95,18.94-12.85,36.64-27.25,49.25
		c-13,11.43-29.6,18.81-46.86,20.44c-13.93,1.58-28.26-0.61-41.21-5.92c-19-7.79-34.86-22.85-43.62-41.43
		c-8.05-16.78-9.8-36.35-5.49-54.4c3.85-16.03,12.53-30.88,24.68-42.04C543.633,629.763,559.763,622.143,576.643,619.933
		 M576.783,642.003c-15.53,2.42-30.14,10.71-39.89,23.08c-9.84,12.37-14.9,28.67-12.95,44.44c1.03,10.51,4.92,20.72,11.21,29.22
		c9.43,13.21,24.24,22.38,40.22,25.14c12.87,2.28,26.48,0.66,38.33-4.92c18.46-8.36,32.32-26.24,35.43-46.32
		c1.3-9.5,0.83-19.38-2.3-28.49c-4.17-12.94-12.91-24.3-24.19-31.87C609.433,643.143,592.623,639.523,576.783,642.003z"/>
	<path fill="#FFFFFF" stroke="#FFFFFF" stroke-width="0.5" d="M1469.683,622.713c21.89-0.51,43.82,0,65.73-0.14
		c18.02,0.07,36.05-0.08,54.08,0.14c0.07,2.37,0.06,4.74,0.05,7.12c-40.03-0.27-80.06-0.46-120.1-0.91
		C1469.463,626.853,1469.393,624.763,1469.683,622.713z"/>
	<path stroke="#000000" stroke-width="0.5" d="M1733.843,627.093c16.02-1.72,32.51,3.04,45.41,12.63
		c16.83,12.36,27.36,32.87,27.44,53.77c0.45,14.78-4.25,29.59-12.84,41.59c-9.29,12.89-23.22,22.49-38.76,26.01
		c-17.32,4.08-36.28,0.67-51-9.36c-13.39-8.88-23.29-22.75-27.58-38.22c-5.94-20.89-1.38-44.56,12.28-61.51
		C1699.663,638.093,1716.263,628.853,1733.843,627.093 M1731.803,633.113c-21.72,3-40.79,18.92-48.25,39.45
		c-6.42,16.62-5.19,35.89,3.09,51.65c8.59,16.69,25.11,29.2,43.71,32.26c18.81,3.48,39.06-2.94,52.57-16.44
		c12.19-11.75,19.13-28.64,18.94-45.56c-0.06-16.6-6.94-33.08-18.87-44.65C1769.803,636.643,1750.233,630.223,1731.803,633.113z"/>
	<path fill="#B6FF00" stroke="#B6FF00" stroke-width="0.5" d="M1731.803,633.113c18.43-2.89,38,3.53,51.19,16.71
		c11.93,11.57,18.81,28.05,18.87,44.65c0.19,16.92-6.75,33.81-18.94,45.56c-13.51,13.5-33.76,19.92-52.57,16.44
		c-18.6-3.06-35.12-15.57-43.71-32.26c-8.28-15.76-9.51-35.03-3.09-51.65C1691.013,652.033,1710.083,636.113,1731.803,633.113
		 M1736.543,648.803c-3.52,1.22-4.07,6.58-0.81,8.44c3.15,2.35,8-0.81,7.33-4.61
		C1742.783,649.603,1739.313,647.663,1736.543,648.803 M1734.803,662.083c-5.87,1.16-11.38,4.07-15.63,8.27
		c-9.77,9.38-12.57,24.98-6.82,37.21c5.27,12.2,18.84,20.38,32.14,18.49c9.34-1.1,17.86-6.88,22.68-14.91
		c6.18-10.05,6.29-23.45,0.39-33.65C1761.283,666.193,1747.583,659.343,1734.803,662.083 M1778.673,687.983
		c-3.06,1.36-3.62,6.01-0.89,8c2.47,2.24,6.87,0.76,7.62-2.45C1786.653,689.773,1782.123,686.083,1778.673,687.983
		 M1696.773,691.003c-2.59,1.85-2.29,6.14,0.42,7.74c2.66,1.83,6.72,0.07,7.25-3.11
		C1705.563,691.503,1699.903,688.043,1696.773,691.003 M1739.633,730.923c-2.9,1.25-3.65,5.59-1.23,7.69
		c2.34,2.6,7.16,1.25,7.95-2.13C1747.623,732.793,1743.053,728.913,1739.633,730.923z"/>
	<path stroke="#000000" stroke-width="0.5" d="M788.933,641.193c13.44-2.36,27.64-0.35,39.81,5.87
		c11.07,5.66,20.36,14.67,26.54,25.44c8.26,14.75,10.44,32.89,5.35,49.07c-4.01,13.58-12.9,25.58-24.51,33.64
		c-13.39,9.48-30.64,13.25-46.78,10.31c-15.46-2.56-29.65-11.35-39.2-23.71c-16.22-20.31-17.43-50.95-3.04-72.56
		C756.443,654.713,771.883,644.223,788.933,641.193 M788.893,645.243c-22.12,4.06-40.93,21.91-46.16,43.78
		c-3.87,15.44-1.27,32.46,7.38,45.87c7.96,12.64,20.83,22.19,35.37,25.8c15.66,4.09,33.01,1.36,46.59-7.48
		c19.36-12.1,30.4-36.06,26.67-58.63c-2.39-16.88-12.67-32.33-27.1-41.35C819.123,645.213,803.463,642.413,788.893,645.243z"/>
	<path fill="#010100" stroke="#010100" stroke-width="0.5" d="M576.783,642.003c15.84-2.48,32.65,1.14,45.86,10.28
		c11.28,7.57,20.02,18.93,24.19,31.87c3.13,9.11,3.6,18.99,2.3,28.49c-3.11,20.08-16.97,37.96-35.43,46.32
		c-11.85,5.58-25.46,7.2-38.33,4.92c-15.98-2.76-30.79-11.93-40.22-25.14c-6.29-8.5-10.18-18.71-11.21-29.22
		c-1.95-15.77,3.11-32.07,12.95-44.44C546.643,652.713,561.253,644.423,576.783,642.003 M575.893,646.143
		c-22.28,3.73-41.64,21.36-46.78,43.46c-3.29,12.66-1.68,26.42,4.04,38.15c7.56,16.04,22.99,27.96,40.26,31.74
		c11.45,2.59,23.64,1.75,34.63-2.38c13.52-5.12,25.18-15.27,31.67-28.24c7.95-15.21,8.32-34.11,0.96-49.62
		c-4.54-10.04-12.15-18.58-21.4-24.53C606.623,646.453,590.743,643.413,575.893,646.143z"/>
	<path fill="#B6FF00" stroke="#B6FF00" stroke-width="0.5" d="M788.893,645.243c14.57-2.83,30.23-0.03,42.75,7.99
		c14.43,9.02,24.71,24.47,27.1,41.35c3.73,22.57-7.31,46.53-26.67,58.63c-13.58,8.84-30.93,11.57-46.59,7.48
		c-14.54-3.61-27.41-13.16-35.37-25.8c-8.65-13.41-11.25-30.43-7.38-45.87C747.963,667.153,766.773,649.303,788.893,645.243
		 M797.653,660.773c-2.66,1.61-2.83,5.86-0.32,7.69c2.64,2.27,7.38,0.53,7.71-3.01C805.823,661.573,800.833,658.303,797.653,660.773
		 M796.523,674.743c-14.11,1.41-25.69,14.61-25.15,28.8c-0.04,14.13,11.9,26.88,25.98,27.85c14.1,1.55,28.1-9.05,30.48-23.02
		c1.91-9.34-1.46-19.49-8.4-25.99C813.423,676.623,804.793,673.733,796.523,674.743 M760.483,697.793
		c-3.58,1.16-4.14,6.67-0.83,8.49c2.87,2.06,7.28-0.32,7.31-3.79C767.303,699.183,763.503,696.393,760.483,697.793 M832.703,701.033
		c-2.99,1.43-3.47,5.96-0.8,7.96c2.8,2.54,7.76,0.29,7.8-3.46C840.033,701.963,835.803,699.313,832.703,701.033 M798.653,736.813
		c-3.26,1.79-2.78,7.23,0.74,8.44c3.05,1.54,7-1.4,6.56-4.75C805.853,737.073,801.483,734.753,798.653,736.813z"/>
	<path fill="#B6FF00" stroke="#B6FF00" stroke-width="0.5" d="M575.893,646.143c14.85-2.73,30.73,0.31,43.38,8.58
		c9.25,5.95,16.86,14.49,21.4,24.53c7.36,15.51,6.99,34.41-0.96,49.62c-6.49,12.97-18.15,23.12-31.67,28.24
		c-10.99,4.13-23.18,4.97-34.63,2.38c-17.27-3.78-32.7-15.7-40.26-31.74c-5.72-11.73-7.33-25.49-4.04-38.15
		C534.253,667.503,553.613,649.873,575.893,646.143 M586.743,664.053c-3.39,1.22-4.16,6.21-1.2,8.32c2.62,2.23,7.14,0.48,7.63-2.91
		C594.023,665.953,590.023,662.623,586.743,664.053 M580.803,679.023c-10.1,2.48-18.4,11.19-19.99,21.53
		c-1.68,9.5,2.66,19.62,10.43,25.26c8.15,6.17,19.8,7.13,28.89,2.46c10.77-5.15,17.01-18.05,14.01-29.68
		C610.963,684.263,594.833,675.083,580.803,679.023 M546.863,698.113c-2.93,1.17-3.96,5.38-1.63,7.63c2.14,2.57,6.73,1.77,7.89-1.37
		C555.013,700.693,550.543,696.273,546.863,698.113 M621.593,699.813c-3.26,1.55-3.25,6.79,0.01,8.35c3.15,2,7.63-1.03,7.07-4.68
		C628.443,700.203,624.403,698.053,621.593,699.813 M582.763,736.063c-3.53,1.07-4.31,6.32-1.24,8.36c2.63,2.1,7.07,0.42,7.54-2.95
		C589.893,738.013,586.043,734.723,582.763,736.063z"/>
	<path stroke="#000000" stroke-width="0.5" d="M1736.543,648.803c2.77-1.14,6.24,0.8,6.52,3.83c0.67,3.8-4.18,6.96-7.33,4.61
		C1732.473,655.383,1733.023,650.023,1736.543,648.803z"/>
	<path stroke="#000000" stroke-width="0.5" d="M797.653,660.773c3.18-2.47,8.17,0.8,7.39,4.68c-0.33,3.54-5.07,5.28-7.71,3.01
		C794.823,666.633,794.993,662.383,797.653,660.773z"/>
	<path fill="#020201" stroke="#020201" stroke-width="0.5" d="M1734.803,662.083c12.78-2.74,26.48,4.11,32.76,15.41
		c5.9,10.2,5.79,23.6-0.39,33.65c-4.82,8.03-13.34,13.81-22.68,14.91c-13.3,1.89-26.87-6.29-32.14-18.49
		c-5.75-12.23-2.95-27.83,6.82-37.21C1723.423,666.153,1728.933,663.243,1734.803,662.083 M1734.823,666.073
		c-7.9,1.74-14.74,7.28-18.34,14.48c-5.31,10.19-3.81,23.46,3.71,32.16c6.22,7.53,16.74,11.31,26.29,9.02
		c7.76-1.65,14.48-7.05,18.14-14.04c4.14-7.74,4.44-17.34,0.98-25.37C1760.813,670.573,1747.303,663.023,1734.823,666.073z"/>
	<path stroke="#000000" stroke-width="0.5" d="M586.743,664.053c3.28-1.43,7.28,1.9,6.43,5.41c-0.49,3.39-5.01,5.14-7.63,2.91
		C582.583,670.263,583.353,665.273,586.743,664.053z"/>
	<path fill="#A0A0A0" stroke="#A0A0A0" stroke-width="0.5" d="M1734.823,666.073c12.48-3.05,25.99,4.5,30.78,16.25
		c3.46,8.03,3.16,17.63-0.98,25.37c-3.66,6.99-10.38,12.39-18.14,14.04c-9.55,2.29-20.07-1.49-26.29-9.02
		c-7.52-8.7-9.02-21.97-3.71-32.16C1720.083,673.353,1726.923,667.813,1734.823,666.073z"/>
	<path fill="#FFBE27" stroke="#FFBE27" stroke-width="0.5" d="M455.163,672.703c-2.06-2.67-4.55-6-8.17-6.2
		c-0.61-1.9-5.52-1.87-6.22-0.08l-1.34-0.14c-3.48,2.16-6.79,4.87-8.66,8.61c-3.9,6.83-3.49,14.99-2.89,22.56
		c1.26,6.66,4.92,13.36,11.13,16.54c4.17,2.22,9.49,1.05,12.8-2.19C462.133,701.903,463.003,684.343,455.163,672.703z"/>
	<linearGradient id="SVGID_3_" gradientUnits="userSpaceOnUse" x1="696.988" y1="702.5129" x2="696.988" y2="585.9442">
		<stop  offset="0" style="stop-color:#FFFFFF"/>
		<stop  offset="0.0074" style="stop-color:#F6F6F6"/>
		<stop  offset="0.0477" style="stop-color:#C8C8C8"/>
		<stop  offset="0.0931" style="stop-color:#9D9D9D"/>
		<stop  offset="0.1419" style="stop-color:#777777"/>
		<stop  offset="0.195" style="stop-color:#575757"/>
		<stop  offset="0.2537" style="stop-color:#3B3B3B"/>
		<stop  offset="0.32" style="stop-color:#252525"/>
		<stop  offset="0.3974" style="stop-color:#141414"/>
		<stop  offset="0.4931" style="stop-color:#090909"/>
		<stop  offset="0.6274" style="stop-color:#020202"/>
		<stop  offset="1" style="stop-color:#000000"/>
	</linearGradient>
	<path opacity="0.73" fill="url(#SVGID_3_)" stroke="#000000" stroke-width="0.5" enable-background="new    " d="M732.033,603.123
		c-1.94-0.17-3.85-0.56-5.73-1.01c-8.98,0.99-17.89-2.16-26.82-0.65c-4.23,0.62-8.47-0.83-12.68,0.01
		c-5.75,1.49-11.79-0.6-17.43,1.69c-0.69-0.29-1.37-0.58-2.03-0.85c-6.43,1.02-12.88,1.93-19.34,2.78c-2.82,0.6-6.44,0.61-8.35,3.02
		c3.49,3.01,7.71,5.01,11.29,7.91c5.27,4.19,10.3,8.7,14.95,13.58c7.83,9.03,14.07,19.39,18.74,30.39c2.38,5.4,4,11.09,5.54,16.77
		c1.58,7.98,2.35,16.09,2.44,24.22c1.29,0.1,2.59,0.23,3.89,0.38c0.17-3.03-0.34-6.14,0.55-9.08c0.82-6.55,1.98-13.06,3.41-19.51
		c1.36-4.08,2.88-8.1,4.35-12.14v0c4.58-11.01,10.85-21.36,18.8-30.27c8.38-10.28,19.76-17.32,30.71-24.5
		C746.773,605.983,739.513,603.653,732.033,603.123z"/>
	<path fill="#020201" stroke="#020201" stroke-width="0.5" d="M796.523,674.743c8.27-1.01,16.9,1.88,22.91,7.64
		c6.94,6.5,10.31,16.65,8.4,25.99c-2.38,13.97-16.38,24.57-30.48,23.02c-14.08-0.97-26.02-13.72-25.98-27.85
		C770.833,689.353,782.413,676.153,796.523,674.743 M795.973,679.133c-12,1.68-21.33,13.42-20.3,25.48
		c0.53,8.96,6.45,17.36,14.8,20.73c7.27,3.15,16.05,2.31,22.66-2.05c5.73-3.7,9.7-9.94,10.68-16.69c1.22-7.69-1.64-15.87-7.32-21.18
		C811.113,680.293,803.293,677.903,795.973,679.133z"/>
	<path opacity="0.65" fill="#0E0E0E" stroke="#0E0E0E" stroke-width="0.5" enable-background="new    " d="M35.073,677.973
		c6.09-0.72,12.23-0.28,18.35-0.38c35.38-0.08,70.76,0.31,106.14-0.04l-0.07,0.83C118.023,678.103,76.543,678.573,35.073,677.973z"
		/>
	<path fill="#999999" stroke="#999999" stroke-width="0.5" d="M1589.313,697.573c-0.12-6.76,0.17-13.52,0.62-20.26
		c0.25,4.89,0.5,9.78,0.86,14.67c-0.32,2.42-0.77,4.83-1.21,7.24L1589.313,697.573z"/>
	<path fill="#010100" stroke="#010100" stroke-width="0.5" d="M580.803,679.023c14.03-3.94,30.16,5.24,33.34,19.57
		c3,11.63-3.24,24.53-14.01,29.68c-9.09,4.67-20.74,3.71-28.89-2.46c-7.77-5.64-12.11-15.76-10.43-25.26
		C562.403,690.213,570.703,681.503,580.803,679.023 M583.503,682.763c-9.13,1.54-16.99,9.06-18.45,18.27
		c-1.53,8.21,2.3,16.98,9.13,21.69c7.31,5.26,17.7,5.63,25.41,1.03c6.41-3.74,10.89-10.83,10.98-18.32
		c0.37-7.06-3.13-14.03-8.73-18.26C596.703,683.213,589.873,681.633,583.503,682.763z"/>
	<path fill="#A0A0A0" stroke="#A0A0A0" stroke-width="0.5" d="M795.973,679.133c7.32-1.23,15.14,1.16,20.52,6.29
		c5.68,5.31,8.54,13.49,7.32,21.18c-0.98,6.75-4.95,12.99-10.68,16.69c-6.61,4.36-15.39,5.2-22.66,2.05
		c-8.35-3.37-14.27-11.77-14.8-20.73C774.643,692.553,783.973,680.813,795.973,679.133z"/>
	<path fill="#4F4F4F" stroke="#4F4F4F" stroke-width="0.5" d="M38.193,681.003c0.76,0.09,2.27,0.27,3.02,0.36
		c20.04,1.08,40.14-0.28,60.19,0.71c20.72-0.14,41.44,0.28,62.15-0.27c0.93,5.52,1.02,11.12,0.79,16.7
		c0.06,2.95-0.48,6.34,1.67,8.74c0.98-7.63-0.24-15.34,0.84-22.96c0.73,7.02,0.01,14.08,0.41,21.12l0.71,0.03
		c4.83,0.03,9.67-0.13,14.48,0.37c1.99,0.14,3.98,0.14,5.96,0c6.6-0.63,13.24-0.24,19.85-0.33c0.01-7.06,0.02-14.12,0.08-21.17
		c-6.66-0.06-13.32-0.04-19.97-0.05c-0.01-0.6-0.01-1.8-0.02-2.4c7.24-0.02,14.48-0.17,21.7,0.34c0.01,4.47-0.3,8.96,0.18,13.42
		c0.76,4.27,0.58,8.62,0.39,12.94c-57.45,0.11-114.9-0.12-172.34-0.26C37.963,699.193,38.193,690.103,38.193,681.003
		 M56.893,683.543c0.58,7.15,0.26,14.34,0.2,21.51c0.14,0.02,0.42,0.06,0.56,0.08c-0.09-5.89-0.24-11.79-0.05-17.67
		c-0.33-1.6,1.07-2.48,1.89-3.53c-0.01,7.12-0.06,14.25-0.01,21.38c4.58-0.02,9.16-0.01,13.75,0.02c0.05-7.07-0.06-14.14,0.14-21.2
		l1.79-0.04c0.07,6.99,0.14,13.99-0.07,20.98c0.14,0,0.42,0,0.57,0c-0.13-7.01-0.17-14.02,0.01-21.02
		C69.413,684.033,63.113,684.493,56.893,683.543 M93.723,684.003c0.16,7.09,0.36,14.19,0.18,21.28c3.99,0.05,7.99,0.04,11.97,0.28
		c0.46-1.89,0.75-3.82,0.97-5.75l0.16-0.04c0.4,2.06-0.27,4.97,2.18,5.94c4.62-0.57,9.28-0.27,13.91-0.38
		c-0.1-7.1,0-14.2-0.04-21.29c-4.57,0.13-9.15,0.22-13.71-0.18c-1.34-0.02-2.69-0.02-4.03,0.01
		C101.453,684.203,97.583,684.163,93.723,684.003 M124.593,683.663c-0.35,7.41-0.25,14.87,0.18,22.28c2.33-1.26,1.56-4.24,1.79-6.4
		c-0.18-5.28,0.27-10.6-0.35-15.85C125.803,683.683,124.993,683.673,124.593,683.663 M128.153,684.183
		c0.02,7.08-0.09,14.16,0.01,21.24c5.02-0.05,10.03-0.04,15.05-0.02c0.01-5.96,0.08-11.93-0.1-17.89c-0.46-0.66,0.6-4.38,1.58-2.47
		c1.07,6.59,0.34,13.35,0.4,20.02c0.15,0,0.44,0.01,0.59,0.02c-0.12-7.08-0.31-14.17,0.11-21.23
		C139.913,683.753,134.043,684.513,128.153,684.183 M42.253,684.113c0.04,7.07-0.12,14.14,0.06,21.21
		c4.09-0.06,8.18-0.06,12.26,0.03c0.23-7.08,0.11-14.16,0.11-21.24C50.543,684.063,46.403,684.063,42.253,684.113 M78.053,684.143
		c-0.01,7.03-0.02,14.05-0.02,21.09c4.25,0.08,8.5,0.08,12.75,0.02c0.04-7.04,0.03-14.07,0.03-21.1
		C86.563,684.103,82.303,684.103,78.053,684.143 M147.593,684.323c0.11,7.03,0.05,14.06,0.04,21.09c5.1,0,10.21-0.03,15.31,0.09
		c0.15-7.09,0.15-14.18,0.05-21.27C157.863,684.223,152.723,684.113,147.593,684.323z"/>
	<path fill="#ACABAB" stroke="#ACABAB" stroke-width="0.5" d="M41.213,681.363c20.7-0.02,41.44-0.54,62.13,0.4
		c16.69-0.13,33.37,0.08,50.06-0.06c8.32-0.71,16.67-0.33,25-0.43c10.75,0.3,21.53-0.48,32.25,0.56c0.04,4.59-0.18,9.19-0.42,13.78
		c-0.48-4.46-0.17-8.95-0.18-13.42c-7.22-0.51-14.46-0.36-21.7-0.34c-8.26-0.07-16.53-0.05-24.8-0.05
		c-20.71,0.55-41.43,0.13-62.15,0.27C81.353,681.083,61.253,682.443,41.213,681.363z"/>
	<path fill="#595959" stroke="#595959" stroke-width="0.5" d="M163.553,681.803c8.27,0,16.54-0.02,24.8,0.05
		c0.01,0.6,0.01,1.8,0.02,2.4c0.03,7.18-0.02,14.37,0.04,21.55c-1.98,0.14-3.97,0.14-5.96,0c0.06-7.15,0.07-14.31,0.05-21.46
		c-4.85-0.06-9.7-0.07-14.55-0.02c-0.05,7.03-0.09,14.07,0.02,21.11l-0.71-0.03c-0.4-7.04,0.32-14.1-0.41-21.12
		c-1.08,7.62,0.14,15.33-0.84,22.96c-2.15-2.4-1.61-5.79-1.67-8.74C164.573,692.923,164.483,687.323,163.553,681.803z"/>
	<path fill="#A0A0A0" stroke="#A0A0A0" stroke-width="0.5" d="M583.503,682.763c6.37-1.13,13.2,0.45,18.34,4.41
		c5.6,4.23,9.1,11.2,8.73,18.26c-0.09,7.49-4.57,14.58-10.98,18.32c-7.71,4.6-18.1,4.23-25.41-1.03
		c-6.83-4.71-10.66-13.48-9.13-21.69C566.513,691.823,574.373,684.303,583.503,682.763z"/>
	<path fill="#ADADAD" stroke="#ADADAD" stroke-width="0.5" d="M56.893,683.543c6.22,0.95,12.52,0.49,18.78,0.51
		c-0.18,7-0.14,14.01-0.01,21.02c-0.15,0-0.43,0-0.57,0c0.21-6.99,0.14-13.99,0.07-20.98l-1.79,0.04c-0.2,7.06-0.09,14.13-0.14,21.2
		c-4.59-0.03-9.17-0.04-13.75-0.02c-0.05-7.13,0-14.26,0.01-21.38c-0.82,1.05-2.22,1.93-1.89,3.53c-0.19,5.88-0.04,11.78,0.05,17.67
		c-0.14-0.02-0.42-0.06-0.56-0.08C57.153,697.883,57.473,690.693,56.893,683.543z"/>
	<path fill="#ADADAD" stroke="#ADADAD" stroke-width="0.5" d="M93.723,684.003c3.86,0.16,7.73,0.2,11.59-0.13
		c0.21,7.23-0.01,14.47,0.56,21.69c-3.98-0.24-7.98-0.23-11.97-0.28C94.083,698.193,93.883,691.093,93.723,684.003z"/>
	<path fill="#575757" stroke="#575757" stroke-width="0.5" d="M105.313,683.873c1.34-0.03,2.69-0.03,4.03-0.01
		c-0.08,7.28,0.11,14.57-0.16,21.85c-2.45-0.97-1.78-3.88-2.18-5.94l-0.16,0.04c-0.22,1.93-0.51,3.86-0.97,5.75
		C105.303,698.343,105.523,691.103,105.313,683.873z"/>
	<path fill="#ADADAD" stroke="#ADADAD" stroke-width="0.5" d="M109.343,683.863c4.56,0.4,9.14,0.31,13.71,0.18
		c0.04,7.09-0.06,14.19,0.04,21.29c-4.63,0.11-9.29-0.19-13.91,0.38C109.453,698.433,109.263,691.143,109.343,683.863z"/>
	<path fill="#5C5C5C" stroke="#5C5C5C" stroke-width="0.5" d="M124.593,683.663c0.4,0.01,1.21,0.02,1.62,0.03
		c0.62,5.25,0.17,10.57,0.35,15.85c-0.23,2.16,0.54,5.14-1.79,6.4C124.343,698.533,124.243,691.073,124.593,683.663z"/>
	<path fill="#ADADAD" stroke="#ADADAD" stroke-width="0.5" d="M128.153,684.183c5.89,0.33,11.76-0.43,17.64-0.33
		c-0.42,7.06-0.23,14.15-0.11,21.23c-0.15-0.01-0.44-0.02-0.59-0.02c-0.06-6.67,0.67-13.43-0.4-20.02
		c-0.98-1.91-2.04,1.81-1.58,2.47c0.18,5.96,0.11,11.93,0.1,17.89c-5.02-0.02-10.03-0.03-15.05,0.02
		C128.063,698.343,128.173,691.263,128.153,684.183z"/>
	<path fill="#ADADAD" stroke="#ADADAD" stroke-width="0.5" d="M42.253,684.113c4.15-0.05,8.29-0.05,12.43,0
		c0,7.08,0.12,14.16-0.11,21.24c-4.08-0.09-8.17-0.09-12.26-0.03C42.133,698.253,42.293,691.183,42.253,684.113z"/>
	<path fill="#ADADAD" stroke="#ADADAD" stroke-width="0.5" d="M78.053,684.143c4.25-0.04,8.51-0.04,12.76,0.01
		c0,7.03,0.01,14.06-0.03,21.1c-4.25,0.06-8.5,0.06-12.75-0.02C78.033,698.193,78.043,691.173,78.053,684.143z"/>
	<path fill="#ADADAD" stroke="#ADADAD" stroke-width="0.5" d="M147.593,684.323c5.13-0.21,10.27-0.1,15.4-0.09
		c0.1,7.09,0.1,14.18-0.05,21.27c-5.1-0.12-10.21-0.09-15.31-0.09C147.643,698.383,147.703,691.353,147.593,684.323z"/>
	<path fill="#ADADAD" stroke="#ADADAD" stroke-width="0.5" d="M167.953,684.323c4.85-0.05,9.7-0.04,14.55,0.02
		c0.02,7.15,0.01,14.31-0.05,21.46c-4.81-0.5-9.65-0.34-14.48-0.37C167.863,698.393,167.903,691.353,167.953,684.323z"/>
	<path fill="#ADADAD" stroke="#ADADAD" stroke-width="0.5" d="M188.373,684.253c6.65,0.01,13.31-0.01,19.97,0.05
		c-0.06,7.05-0.07,14.11-0.08,21.17c-6.61,0.09-13.25-0.3-19.85,0.33C188.353,698.623,188.403,691.433,188.373,684.253z"/>
	<path stroke="#000000" stroke-width="0.5" d="M1778.673,687.983c3.45-1.9,7.98,1.79,6.73,5.55c-0.75,3.21-5.15,4.69-7.62,2.45
		C1775.053,693.993,1775.613,689.343,1778.673,687.983z"/>
	<path stroke="#000000" stroke-width="0.5" d="M1696.773,691.003c3.13-2.96,8.79,0.5,7.67,4.63c-0.53,3.18-4.59,4.94-7.25,3.11
		C1694.483,697.143,1694.183,692.853,1696.773,691.003z"/>
	<path stroke="#000000" stroke-width="0.5" d="M546.863,698.113c3.68-1.84,8.15,2.58,6.26,6.26c-1.16,3.14-5.75,3.94-7.89,1.37
		C542.903,703.493,543.933,699.283,546.863,698.113z"/>
	<path stroke="#000000" stroke-width="0.5" d="M760.483,697.793c3.02-1.4,6.82,1.39,6.48,4.7c-0.03,3.47-4.44,5.85-7.31,3.79
		C756.343,704.463,756.903,698.953,760.483,697.793z"/>
	<linearGradient id="SVGID_4_" gradientUnits="userSpaceOnUse" x1="1588.9971" y1="630.3889" x2="1879.6296" y2="630.3889">
		<stop  offset="0" style="stop-color:#E5E2DF"/>
		<stop  offset="0" style="stop-color:#DED9D6"/>
		<stop  offset="0.0381" style="stop-color:#CFCCC9"/>
		<stop  offset="0.1113" style="stop-color:#A8A8A8"/>
		<stop  offset="0.2112" style="stop-color:#6A7072"/>
		<stop  offset="0.264" style="stop-color:#465053"/>
		<stop  offset="0.3722" style="stop-color:#878D8F"/>
		<stop  offset="0.4638" style="stop-color:#B7BABB"/>
		<stop  offset="0.5335" style="stop-color:#D5D6D6"/>
		<stop  offset="0.573" style="stop-color:#E0E0E0"/>
		<stop  offset="0.632" style="stop-color:#D6D7D8"/>
		<stop  offset="0.7314" style="stop-color:#BCBFC2"/>
		<stop  offset="0.8582" style="stop-color:#92989E"/>
		<stop  offset="0.8764" style="stop-color:#8B9298"/>
		<stop  offset="1" style="stop-color:#D1D3D4"/>
		<stop  offset="1" style="stop-color:#A7A9AC"/>
	</linearGradient>
	<path fill="url(#SVGID_4_)" stroke="#969696" stroke-width="0.5" d="M1879.183,670.013c0.62-6.22-0.34-12.43-0.07-18.65
		c-3.64,4.59-8.24,9.81-14.71,9.29c-5.59,0.26-9.64-4.06-13.12-7.81c-2.35-5.13-4.42-10.38-5.29-15.98
		c0.42-6.32,0.01-12.76,2.16-18.85l0.18,0.08c2.02-5.3,5.09-10.57,10.26-13.33c3.27-1.97,7.25-1.32,10.89-1.14
		c-2.41-4.6-4.66-9.31-7.73-13.51l-0.07-0.43c-2.62-4.18-5.56-8.15-8.96-11.7c-5.35-7.06-12.76-12.35-19.9-17.5
		c-9.55-6.46-19.99-11.62-30.81-15.56l-0.1-0.34c-13.8-5.11-27.93-9.56-42.39-12.32c-10.36-2.78-21.06-4.09-31.71-5.24
		c-9.06-1.47-18.25-1.21-27.38-1.2c-11.15-0.33-22.21,1.65-33.04,4.09c-16.18,4.21-31.22,13.56-41.26,27.04
		c-5.45,6.55-9.96,13.85-13.75,21.47c-2.59,5.83-5.92,11.45-7.6,17.62c-2.3,5.19-4.69,10.45-5.99,15.96
		c-3,7.25-6.2,14.78-5.12,22.81c-1.49,6.17-1.71,12.54-2.56,18.81c-0.25,2.7-0.95,5.44-0.42,8.16c-2.02,11.79-1.88,23.87-1.38,35.79
		c-0.12-6.76,0.17-13.52,0.62-20.26c0.25,4.89,0.5,9.78,0.86,14.67c-0.32,2.42-0.77,4.83-1.21,7.24c0.02,0.09,0.05,0.26,0.07,0.34
		c-0.1,5.6,1.34,11.06,2.89,16.39l0.19,0.01c1.65,4.04,3.61,8.26,7.23,10.92c2.51,1.87,4.43,4.56,7.45,5.73
		c5.69,2.63,12.85,3.57,18.46,0.25c5.19-3.54,6.87-10.12,8.06-15.92c1.13-10.41,1.26-20.9,2.05-31.33c0.29-4.13,0.88-8.26,0.81-12.4
		l0.22,0.64c0.49-7.6,2.1-15.1,2.72-22.67l0.21,0.53c1.39-7.66,3.62-15.12,5.59-22.62l0.07,0.49c3.43-9.51,8.11-18.54,14.22-26.6
		l0.37-0.11c4.69-5.86,10.7-10.4,16.69-14.85l0.43,0.03c19.01-11.04,41.39-14.86,63.14-14.39c4.12,0.03,8.24,1.05,12.36,0.48
		c5.44,1.4,11.08,1.87,16.52,3.33c10.23,2.33,20,6.37,29.18,11.41l0.38,0.05c5.94,3.97,11.54,8.39,16.54,13.5
		c5.19,5.77,9.12,12.45,12.98,19.14c1.1,3.66,2.98,7.04,4.19,10.67l0.12-0.02c3.33,9.89,5.44,20.13,7.17,30.41
		c0.24,3.64,0.88,7.26,1.33,10.89c0.01,2.09,0.28,4.17,0.56,6.26l0.19-0.59c0.44,10.47,0.93,20.96,1.85,31.41
		c0.11,4.36-1.54,9.12,0.61,13.23c6.93,0.38,14.16,1.9,20.9-0.54c4.84-1.68,8.25-6.06,9.83-10.81c2.62-7.69,3.75-15.88,3.78-23.99
		l0.28-0.38C1879.083,682.093,1880.233,675.933,1879.183,670.013z"/>
	<path stroke="#000000" stroke-width="0.5" d="M621.593,699.813c2.81-1.76,6.85,0.39,7.08,3.67c0.56,3.65-3.92,6.68-7.07,4.68
		C618.343,706.603,618.333,701.363,621.593,699.813z"/>
	<path stroke="#000000" stroke-width="0.5" d="M832.703,701.033c3.1-1.72,7.33,0.93,7,4.5c-0.04,3.75-5,6-7.8,3.46
		C829.233,706.993,829.713,702.463,832.703,701.033z"/>
	<linearGradient id="SVGID_5_" gradientUnits="userSpaceOnUse" x1="1528.358" y1="726.5429" x2="1528.358" y2="634.0645">
		<stop  offset="0" style="stop-color:#E5E2DF"/>
		<stop  offset="0" style="stop-color:#DED9D6"/>
		<stop  offset="0.0381" style="stop-color:#CFCCC9"/>
		<stop  offset="0.1113" style="stop-color:#A8A8A8"/>
		<stop  offset="0.2112" style="stop-color:#6A7072"/>
		<stop  offset="0.264" style="stop-color:#465053"/>
		<stop  offset="0.3722" style="stop-color:#878D8F"/>
		<stop  offset="0.4638" style="stop-color:#B7BABB"/>
		<stop  offset="0.5335" style="stop-color:#D5D6D6"/>
		<stop  offset="0.573" style="stop-color:#E0E0E0"/>
		<stop  offset="0.632" style="stop-color:#D6D7D8"/>
		<stop  offset="0.7314" style="stop-color:#BCBFC2"/>
		<stop  offset="0.8582" style="stop-color:#92989E"/>
		<stop  offset="0.8764" style="stop-color:#8B9298"/>
		<stop  offset="1" style="stop-color:#D1D3D4"/>
		<stop  offset="1" style="stop-color:#A7A9AC"/>
	</linearGradient>
	<path fill="url(#SVGID_5_)" stroke="#C9C9C9" stroke-width="0.5" d="M1591.293,723.093c-1.69-3.25-3.05-6.64-4.07-10.14
		c-0.29-1.35-0.68-2.73-0.91-4.04c-0.38-2.37-0.74-4.74-1-7.11c-0.92-6.24-0.26-12.56-0.86-18.8c0.22-5.01,1.08-10.03,0.81-15.05
		c0.67-3.85,0.88-7.75,1.19-11.64c0.32-2.73,0.89-5.46,0.83-8.2c0.79-4.62,1.1-9.31,1.87-13.93c-38.25,0.03-76.5-0.16-114.74-0.11
		c0.97,1.97,1.99,3.95,2.98,5.94c1.53,3.02,2.92,6.11,4.44,9.14c0.33,1.31,0.92,2.54,1.45,3.82c1.07,2.67,2.08,5.37,3.05,8.09
		c0.64,2.35,1.26,4.72,1.89,7.1c0.35,2.04,0.73,4.1,1.03,6.16c0.08,1.66,0.15,3.34,0.48,5c-0.12,2.58-0.57,5.21-0.07,7.79
		c-0.81,3.22-1.53,6.46-2.4,9.66c-1,2.28-2.03,4.54-3.06,6.8c-1.33,2.06-2.7,4.11-4.09,6.14c-2.3,2.66-4.66,5.25-7.01,7.86
		c-0.75,0.68-1.47,1.38-2.17,2.09l-0.08,0.18c-1.53,1.24-3.05,2.49-4.4,3.92c-1.16,0.83-2.27,1.76-3.32,2.72
		c43.48,0.07,86.96,0,130.45,0.06C1592.803,725.383,1592.033,724.223,1591.293,723.093z"/>
	<path fill="#FFFFFF" stroke="#FFFFFF" stroke-width="0.5" d="M1459.113,730.483c46.68,0.09,93.36-0.05,140.03,0.28
		c0.1,2.92,0.2,5.85,0.04,8.78c-1.09,0.86-2.62,0.4-3.84,0.56c-45.43-0.17-90.87-0.07-136.31-0.31
		C1458.923,736.683,1458.913,733.583,1459.113,730.483z"/>
	<path stroke="#000000" stroke-width="0.5" d="M1739.633,730.923c3.42-2.01,7.99,1.87,6.72,5.56c-0.79,3.38-5.61,4.73-7.95,2.13
		C1735.983,736.513,1736.733,732.173,1739.633,730.923z"/>
	<path stroke="#000000" stroke-width="0.5" d="M582.763,736.063c3.28-1.34,7.13,1.95,6.3,5.41c-0.47,3.37-4.91,5.05-7.54,2.95
		C578.453,742.383,579.233,737.133,582.763,736.063z"/>
	<path stroke="#000000" stroke-width="0.5" d="M798.653,736.813c2.83-2.06,7.2,0.26,7.3,3.69c0.44,3.35-3.51,6.29-6.56,4.75
		C795.873,744.043,795.393,738.603,798.653,736.813z"/>
	<path opacity="0.15" stroke="#000000" stroke-width="0.5" enable-background="new    " d="M950.273,808.993
		c3.5-0.44,7.49-1.82,10.69,0.38C957.393,809.813,953.803,809.563,950.273,808.993z"/>
</g>
</svg>
